<?xml version="1.0" encoding="utf-8" standalone="no"?>
<!DOCTYPE svg PUBLIC "-//W3C//DTD SVG 1.1//EN"
  "http://www.w3.org/Graphics/SVG/1.1/DTD/svg11.dtd">
<!-- Created with matplotlib (https://matplotlib.org/) -->
<svg height="504pt" version="1.1" viewBox="0 0 1080 504" width="1080pt" xmlns="http://www.w3.org/2000/svg" xmlns:xlink="http://www.w3.org/1999/xlink">
 <defs>
  <style type="text/css">
*{stroke-linecap:butt;stroke-linejoin:round;}
  </style>
 </defs>
 <g id="figure_1">
  <g id="patch_1">
   <path d="M 0 504 
L 1080 504 
L 1080 0 
L 0 0 
z
" style="fill:#ffffff;"/>
  </g>
  <g id="axes_1">
   <g id="patch_2">
    <path d="M 135 441 
L 972 441 
L 972 60.48 
L 135 60.48 
z
" style="fill:#ffffff;"/>
   </g>
   <g id="matplotlib.axis_1">
    <g id="xtick_1">
     <g id="line2d_1">
      <path clip-path="url(#pc95260255c)" d="M 173.045455 441 
L 173.045455 60.48 
" style="fill:none;stroke:#b0b0b0;stroke-linecap:square;stroke-width:0.8;"/>
     </g>
     <g id="line2d_2">
      <defs>
       <path d="M 0 0 
L 0 3.5 
" id="m6b43f7da25" style="stroke:#000000;stroke-width:0.8;"/>
      </defs>
      <g>
       <use style="stroke:#000000;stroke-width:0.8;" x="173.045455" xlink:href="#m6b43f7da25" y="441"/>
      </g>
     </g>
     <g id="text_1">
      <!-- 1900 -->
      <defs>
       <path d="M 12.40625 8.296875 
L 28.515625 8.296875 
L 28.515625 63.921875 
L 10.984375 60.40625 
L 10.984375 69.390625 
L 28.421875 72.90625 
L 38.28125 72.90625 
L 38.28125 8.296875 
L 54.390625 8.296875 
L 54.390625 0 
L 12.40625 0 
z
" id="DejaVuSans-49"/>
       <path d="M 10.984375 1.515625 
L 10.984375 10.5 
Q 14.703125 8.734375 18.5 7.8125 
Q 22.3125 6.890625 25.984375 6.890625 
Q 35.75 6.890625 40.890625 13.453125 
Q 46.046875 20.015625 46.78125 33.40625 
Q 43.953125 29.203125 39.59375 26.953125 
Q 35.25 24.703125 29.984375 24.703125 
Q 19.046875 24.703125 12.671875 31.3125 
Q 6.296875 37.9375 6.296875 49.421875 
Q 6.296875 60.640625 12.9375 67.421875 
Q 19.578125 74.21875 30.609375 74.21875 
Q 43.265625 74.21875 49.921875 64.515625 
Q 56.59375 54.828125 56.59375 36.375 
Q 56.59375 19.140625 48.40625 8.859375 
Q 40.234375 -1.421875 26.421875 -1.421875 
Q 22.703125 -1.421875 18.890625 -0.6875 
Q 15.09375 0.046875 10.984375 1.515625 
z
M 30.609375 32.421875 
Q 37.25 32.421875 41.125 36.953125 
Q 45.015625 41.5 45.015625 49.421875 
Q 45.015625 57.28125 41.125 61.84375 
Q 37.25 66.40625 30.609375 66.40625 
Q 23.96875 66.40625 20.09375 61.84375 
Q 16.21875 57.28125 16.21875 49.421875 
Q 16.21875 41.5 20.09375 36.953125 
Q 23.96875 32.421875 30.609375 32.421875 
z
" id="DejaVuSans-57"/>
       <path d="M 31.78125 66.40625 
Q 24.171875 66.40625 20.328125 58.90625 
Q 16.5 51.421875 16.5 36.375 
Q 16.5 21.390625 20.328125 13.890625 
Q 24.171875 6.390625 31.78125 6.390625 
Q 39.453125 6.390625 43.28125 13.890625 
Q 47.125 21.390625 47.125 36.375 
Q 47.125 51.421875 43.28125 58.90625 
Q 39.453125 66.40625 31.78125 66.40625 
z
M 31.78125 74.21875 
Q 44.046875 74.21875 50.515625 64.515625 
Q 56.984375 54.828125 56.984375 36.375 
Q 56.984375 17.96875 50.515625 8.265625 
Q 44.046875 -1.421875 31.78125 -1.421875 
Q 19.53125 -1.421875 13.0625 8.265625 
Q 6.59375 17.96875 6.59375 36.375 
Q 6.59375 54.828125 13.0625 64.515625 
Q 19.53125 74.21875 31.78125 74.21875 
z
" id="DejaVuSans-48"/>
      </defs>
      <g transform="translate(160.320455 455.598437)scale(0.1 -0.1)">
       <use xlink:href="#DejaVuSans-49"/>
       <use x="63.623047" xlink:href="#DejaVuSans-57"/>
       <use x="127.246094" xlink:href="#DejaVuSans-48"/>
       <use x="190.869141" xlink:href="#DejaVuSans-48"/>
      </g>
     </g>
    </g>
    <g id="xtick_2">
     <g id="line2d_3">
      <path clip-path="url(#pc95260255c)" d="M 305.37747 441 
L 305.37747 60.48 
" style="fill:none;stroke:#b0b0b0;stroke-linecap:square;stroke-width:0.8;"/>
     </g>
     <g id="line2d_4">
      <g>
       <use style="stroke:#000000;stroke-width:0.8;" x="305.37747" xlink:href="#m6b43f7da25" y="441"/>
      </g>
     </g>
     <g id="text_2">
      <!-- 1920 -->
      <defs>
       <path d="M 19.1875 8.296875 
L 53.609375 8.296875 
L 53.609375 0 
L 7.328125 0 
L 7.328125 8.296875 
Q 12.9375 14.109375 22.625 23.890625 
Q 32.328125 33.6875 34.8125 36.53125 
Q 39.546875 41.84375 41.421875 45.53125 
Q 43.3125 49.21875 43.3125 52.78125 
Q 43.3125 58.59375 39.234375 62.25 
Q 35.15625 65.921875 28.609375 65.921875 
Q 23.96875 65.921875 18.8125 64.3125 
Q 13.671875 62.703125 7.8125 59.421875 
L 7.8125 69.390625 
Q 13.765625 71.78125 18.9375 73 
Q 24.125 74.21875 28.421875 74.21875 
Q 39.75 74.21875 46.484375 68.546875 
Q 53.21875 62.890625 53.21875 53.421875 
Q 53.21875 48.921875 51.53125 44.890625 
Q 49.859375 40.875 45.40625 35.40625 
Q 44.1875 33.984375 37.640625 27.21875 
Q 31.109375 20.453125 19.1875 8.296875 
z
" id="DejaVuSans-50"/>
      </defs>
      <g transform="translate(292.65247 455.598437)scale(0.1 -0.1)">
       <use xlink:href="#DejaVuSans-49"/>
       <use x="63.623047" xlink:href="#DejaVuSans-57"/>
       <use x="127.246094" xlink:href="#DejaVuSans-50"/>
       <use x="190.869141" xlink:href="#DejaVuSans-48"/>
      </g>
     </g>
    </g>
    <g id="xtick_3">
     <g id="line2d_5">
      <path clip-path="url(#pc95260255c)" d="M 437.709486 441 
L 437.709486 60.48 
" style="fill:none;stroke:#b0b0b0;stroke-linecap:square;stroke-width:0.8;"/>
     </g>
     <g id="line2d_6">
      <g>
       <use style="stroke:#000000;stroke-width:0.8;" x="437.709486" xlink:href="#m6b43f7da25" y="441"/>
      </g>
     </g>
     <g id="text_3">
      <!-- 1940 -->
      <defs>
       <path d="M 37.796875 64.3125 
L 12.890625 25.390625 
L 37.796875 25.390625 
z
M 35.203125 72.90625 
L 47.609375 72.90625 
L 47.609375 25.390625 
L 58.015625 25.390625 
L 58.015625 17.1875 
L 47.609375 17.1875 
L 47.609375 0 
L 37.796875 0 
L 37.796875 17.1875 
L 4.890625 17.1875 
L 4.890625 26.703125 
z
" id="DejaVuSans-52"/>
      </defs>
      <g transform="translate(424.984486 455.598437)scale(0.1 -0.1)">
       <use xlink:href="#DejaVuSans-49"/>
       <use x="63.623047" xlink:href="#DejaVuSans-57"/>
       <use x="127.246094" xlink:href="#DejaVuSans-52"/>
       <use x="190.869141" xlink:href="#DejaVuSans-48"/>
      </g>
     </g>
    </g>
    <g id="xtick_4">
     <g id="line2d_7">
      <path clip-path="url(#pc95260255c)" d="M 570.041502 441 
L 570.041502 60.48 
" style="fill:none;stroke:#b0b0b0;stroke-linecap:square;stroke-width:0.8;"/>
     </g>
     <g id="line2d_8">
      <g>
       <use style="stroke:#000000;stroke-width:0.8;" x="570.041502" xlink:href="#m6b43f7da25" y="441"/>
      </g>
     </g>
     <g id="text_4">
      <!-- 1960 -->
      <defs>
       <path d="M 33.015625 40.375 
Q 26.375 40.375 22.484375 35.828125 
Q 18.609375 31.296875 18.609375 23.390625 
Q 18.609375 15.53125 22.484375 10.953125 
Q 26.375 6.390625 33.015625 6.390625 
Q 39.65625 6.390625 43.53125 10.953125 
Q 47.40625 15.53125 47.40625 23.390625 
Q 47.40625 31.296875 43.53125 35.828125 
Q 39.65625 40.375 33.015625 40.375 
z
M 52.59375 71.296875 
L 52.59375 62.3125 
Q 48.875 64.0625 45.09375 64.984375 
Q 41.3125 65.921875 37.59375 65.921875 
Q 27.828125 65.921875 22.671875 59.328125 
Q 17.53125 52.734375 16.796875 39.40625 
Q 19.671875 43.65625 24.015625 45.921875 
Q 28.375 48.1875 33.59375 48.1875 
Q 44.578125 48.1875 50.953125 41.515625 
Q 57.328125 34.859375 57.328125 23.390625 
Q 57.328125 12.15625 50.6875 5.359375 
Q 44.046875 -1.421875 33.015625 -1.421875 
Q 20.359375 -1.421875 13.671875 8.265625 
Q 6.984375 17.96875 6.984375 36.375 
Q 6.984375 53.65625 15.1875 63.9375 
Q 23.390625 74.21875 37.203125 74.21875 
Q 40.921875 74.21875 44.703125 73.484375 
Q 48.484375 72.75 52.59375 71.296875 
z
" id="DejaVuSans-54"/>
      </defs>
      <g transform="translate(557.316502 455.598437)scale(0.1 -0.1)">
       <use xlink:href="#DejaVuSans-49"/>
       <use x="63.623047" xlink:href="#DejaVuSans-57"/>
       <use x="127.246094" xlink:href="#DejaVuSans-54"/>
       <use x="190.869141" xlink:href="#DejaVuSans-48"/>
      </g>
     </g>
    </g>
    <g id="xtick_5">
     <g id="line2d_9">
      <path clip-path="url(#pc95260255c)" d="M 702.373518 441 
L 702.373518 60.48 
" style="fill:none;stroke:#b0b0b0;stroke-linecap:square;stroke-width:0.8;"/>
     </g>
     <g id="line2d_10">
      <g>
       <use style="stroke:#000000;stroke-width:0.8;" x="702.373518" xlink:href="#m6b43f7da25" y="441"/>
      </g>
     </g>
     <g id="text_5">
      <!-- 1980 -->
      <defs>
       <path d="M 31.78125 34.625 
Q 24.75 34.625 20.71875 30.859375 
Q 16.703125 27.09375 16.703125 20.515625 
Q 16.703125 13.921875 20.71875 10.15625 
Q 24.75 6.390625 31.78125 6.390625 
Q 38.8125 6.390625 42.859375 10.171875 
Q 46.921875 13.96875 46.921875 20.515625 
Q 46.921875 27.09375 42.890625 30.859375 
Q 38.875 34.625 31.78125 34.625 
z
M 21.921875 38.8125 
Q 15.578125 40.375 12.03125 44.71875 
Q 8.5 49.078125 8.5 55.328125 
Q 8.5 64.0625 14.71875 69.140625 
Q 20.953125 74.21875 31.78125 74.21875 
Q 42.671875 74.21875 48.875 69.140625 
Q 55.078125 64.0625 55.078125 55.328125 
Q 55.078125 49.078125 51.53125 44.71875 
Q 48 40.375 41.703125 38.8125 
Q 48.828125 37.15625 52.796875 32.3125 
Q 56.78125 27.484375 56.78125 20.515625 
Q 56.78125 9.90625 50.3125 4.234375 
Q 43.84375 -1.421875 31.78125 -1.421875 
Q 19.734375 -1.421875 13.25 4.234375 
Q 6.78125 9.90625 6.78125 20.515625 
Q 6.78125 27.484375 10.78125 32.3125 
Q 14.796875 37.15625 21.921875 38.8125 
z
M 18.3125 54.390625 
Q 18.3125 48.734375 21.84375 45.5625 
Q 25.390625 42.390625 31.78125 42.390625 
Q 38.140625 42.390625 41.71875 45.5625 
Q 45.3125 48.734375 45.3125 54.390625 
Q 45.3125 60.0625 41.71875 63.234375 
Q 38.140625 66.40625 31.78125 66.40625 
Q 25.390625 66.40625 21.84375 63.234375 
Q 18.3125 60.0625 18.3125 54.390625 
z
" id="DejaVuSans-56"/>
      </defs>
      <g transform="translate(689.648518 455.598437)scale(0.1 -0.1)">
       <use xlink:href="#DejaVuSans-49"/>
       <use x="63.623047" xlink:href="#DejaVuSans-57"/>
       <use x="127.246094" xlink:href="#DejaVuSans-56"/>
       <use x="190.869141" xlink:href="#DejaVuSans-48"/>
      </g>
     </g>
    </g>
    <g id="xtick_6">
     <g id="line2d_11">
      <path clip-path="url(#pc95260255c)" d="M 834.705534 441 
L 834.705534 60.48 
" style="fill:none;stroke:#b0b0b0;stroke-linecap:square;stroke-width:0.8;"/>
     </g>
     <g id="line2d_12">
      <g>
       <use style="stroke:#000000;stroke-width:0.8;" x="834.705534" xlink:href="#m6b43f7da25" y="441"/>
      </g>
     </g>
     <g id="text_6">
      <!-- 2000 -->
      <g transform="translate(821.980534 455.598437)scale(0.1 -0.1)">
       <use xlink:href="#DejaVuSans-50"/>
       <use x="63.623047" xlink:href="#DejaVuSans-48"/>
       <use x="127.246094" xlink:href="#DejaVuSans-48"/>
       <use x="190.869141" xlink:href="#DejaVuSans-48"/>
      </g>
     </g>
    </g>
    <g id="xtick_7">
     <g id="line2d_13">
      <path clip-path="url(#pc95260255c)" d="M 967.037549 441 
L 967.037549 60.48 
" style="fill:none;stroke:#b0b0b0;stroke-linecap:square;stroke-width:0.8;"/>
     </g>
     <g id="line2d_14">
      <g>
       <use style="stroke:#000000;stroke-width:0.8;" x="967.037549" xlink:href="#m6b43f7da25" y="441"/>
      </g>
     </g>
     <g id="text_7">
      <!-- 2020 -->
      <g transform="translate(954.312549 455.598437)scale(0.1 -0.1)">
       <use xlink:href="#DejaVuSans-50"/>
       <use x="63.623047" xlink:href="#DejaVuSans-48"/>
       <use x="127.246094" xlink:href="#DejaVuSans-50"/>
       <use x="190.869141" xlink:href="#DejaVuSans-48"/>
      </g>
     </g>
    </g>
    <g id="text_8">
     <!-- Year -->
     <defs>
      <path d="M -0.203125 72.90625 
L 10.40625 72.90625 
L 30.609375 42.921875 
L 50.6875 72.90625 
L 61.28125 72.90625 
L 35.5 34.71875 
L 35.5 0 
L 25.59375 0 
L 25.59375 34.71875 
z
" id="DejaVuSans-89"/>
      <path d="M 56.203125 29.59375 
L 56.203125 25.203125 
L 14.890625 25.203125 
Q 15.484375 15.921875 20.484375 11.0625 
Q 25.484375 6.203125 34.421875 6.203125 
Q 39.59375 6.203125 44.453125 7.46875 
Q 49.3125 8.734375 54.109375 11.28125 
L 54.109375 2.78125 
Q 49.265625 0.734375 44.1875 -0.34375 
Q 39.109375 -1.421875 33.890625 -1.421875 
Q 20.796875 -1.421875 13.15625 6.1875 
Q 5.515625 13.8125 5.515625 26.8125 
Q 5.515625 40.234375 12.765625 48.109375 
Q 20.015625 56 32.328125 56 
Q 43.359375 56 49.78125 48.890625 
Q 56.203125 41.796875 56.203125 29.59375 
z
M 47.21875 32.234375 
Q 47.125 39.59375 43.09375 43.984375 
Q 39.0625 48.390625 32.421875 48.390625 
Q 24.90625 48.390625 20.390625 44.140625 
Q 15.875 39.890625 15.1875 32.171875 
z
" id="DejaVuSans-101"/>
      <path d="M 34.28125 27.484375 
Q 23.390625 27.484375 19.1875 25 
Q 14.984375 22.515625 14.984375 16.5 
Q 14.984375 11.71875 18.140625 8.90625 
Q 21.296875 6.109375 26.703125 6.109375 
Q 34.1875 6.109375 38.703125 11.40625 
Q 43.21875 16.703125 43.21875 25.484375 
L 43.21875 27.484375 
z
M 52.203125 31.203125 
L 52.203125 0 
L 43.21875 0 
L 43.21875 8.296875 
Q 40.140625 3.328125 35.546875 0.953125 
Q 30.953125 -1.421875 24.3125 -1.421875 
Q 15.921875 -1.421875 10.953125 3.296875 
Q 6 8.015625 6 15.921875 
Q 6 25.140625 12.171875 29.828125 
Q 18.359375 34.515625 30.609375 34.515625 
L 43.21875 34.515625 
L 43.21875 35.40625 
Q 43.21875 41.609375 39.140625 45 
Q 35.0625 48.390625 27.6875 48.390625 
Q 23 48.390625 18.546875 47.265625 
Q 14.109375 46.140625 10.015625 43.890625 
L 10.015625 52.203125 
Q 14.9375 54.109375 19.578125 55.046875 
Q 24.21875 56 28.609375 56 
Q 40.484375 56 46.34375 49.84375 
Q 52.203125 43.703125 52.203125 31.203125 
z
" id="DejaVuSans-97"/>
      <path d="M 41.109375 46.296875 
Q 39.59375 47.171875 37.8125 47.578125 
Q 36.03125 48 33.890625 48 
Q 26.265625 48 22.1875 43.046875 
Q 18.109375 38.09375 18.109375 28.8125 
L 18.109375 0 
L 9.078125 0 
L 9.078125 54.6875 
L 18.109375 54.6875 
L 18.109375 46.1875 
Q 20.953125 51.171875 25.484375 53.578125 
Q 30.03125 56 36.53125 56 
Q 37.453125 56 38.578125 55.875 
Q 39.703125 55.765625 41.0625 55.515625 
z
" id="DejaVuSans-114"/>
     </defs>
     <g transform="translate(536.640234 473.075781)scale(0.15 -0.15)">
      <use xlink:href="#DejaVuSans-89"/>
      <use x="60.880859" xlink:href="#DejaVuSans-101"/>
      <use x="122.404297" xlink:href="#DejaVuSans-97"/>
      <use x="183.683594" xlink:href="#DejaVuSans-114"/>
     </g>
    </g>
   </g>
   <g id="matplotlib.axis_2">
    <g id="ytick_1">
     <g id="line2d_15">
      <path clip-path="url(#pc95260255c)" d="M 135 390.381549 
L 972 390.381549 
" style="fill:none;stroke:#b0b0b0;stroke-linecap:square;stroke-width:0.8;"/>
     </g>
     <g id="line2d_16">
      <defs>
       <path d="M 0 0 
L -3.5 0 
" id="m51248876b2" style="stroke:#000000;stroke-width:0.8;"/>
      </defs>
      <g>
       <use style="stroke:#000000;stroke-width:0.8;" x="135" xlink:href="#m51248876b2" y="390.381549"/>
      </g>
     </g>
     <g id="text_9">
      <!-- −0.4 -->
      <defs>
       <path d="M 10.59375 35.5 
L 73.1875 35.5 
L 73.1875 27.203125 
L 10.59375 27.203125 
z
" id="DejaVuSans-8722"/>
       <path d="M 10.6875 12.40625 
L 21 12.40625 
L 21 0 
L 10.6875 0 
z
" id="DejaVuSans-46"/>
      </defs>
      <g transform="translate(103.717187 394.180768)scale(0.1 -0.1)">
       <use xlink:href="#DejaVuSans-8722"/>
       <use x="83.789062" xlink:href="#DejaVuSans-48"/>
       <use x="147.412109" xlink:href="#DejaVuSans-46"/>
       <use x="179.199219" xlink:href="#DejaVuSans-52"/>
      </g>
     </g>
    </g>
    <g id="ytick_2">
     <g id="line2d_17">
      <path clip-path="url(#pc95260255c)" d="M 135 336.439281 
L 972 336.439281 
" style="fill:none;stroke:#b0b0b0;stroke-linecap:square;stroke-width:0.8;"/>
     </g>
     <g id="line2d_18">
      <g>
       <use style="stroke:#000000;stroke-width:0.8;" x="135" xlink:href="#m51248876b2" y="336.439281"/>
      </g>
     </g>
     <g id="text_10">
      <!-- −0.2 -->
      <g transform="translate(103.717187 340.238499)scale(0.1 -0.1)">
       <use xlink:href="#DejaVuSans-8722"/>
       <use x="83.789062" xlink:href="#DejaVuSans-48"/>
       <use x="147.412109" xlink:href="#DejaVuSans-46"/>
       <use x="179.199219" xlink:href="#DejaVuSans-50"/>
      </g>
     </g>
    </g>
    <g id="ytick_3">
     <g id="line2d_19">
      <path clip-path="url(#pc95260255c)" d="M 135 282.497012 
L 972 282.497012 
" style="fill:none;stroke:#b0b0b0;stroke-linecap:square;stroke-width:0.8;"/>
     </g>
     <g id="line2d_20">
      <g>
       <use style="stroke:#000000;stroke-width:0.8;" x="135" xlink:href="#m51248876b2" y="282.497012"/>
      </g>
     </g>
     <g id="text_11">
      <!-- 0.0 -->
      <g transform="translate(112.096875 286.296231)scale(0.1 -0.1)">
       <use xlink:href="#DejaVuSans-48"/>
       <use x="63.623047" xlink:href="#DejaVuSans-46"/>
       <use x="95.410156" xlink:href="#DejaVuSans-48"/>
      </g>
     </g>
    </g>
    <g id="ytick_4">
     <g id="line2d_21">
      <path clip-path="url(#pc95260255c)" d="M 135 228.554744 
L 972 228.554744 
" style="fill:none;stroke:#b0b0b0;stroke-linecap:square;stroke-width:0.8;"/>
     </g>
     <g id="line2d_22">
      <g>
       <use style="stroke:#000000;stroke-width:0.8;" x="135" xlink:href="#m51248876b2" y="228.554744"/>
      </g>
     </g>
     <g id="text_12">
      <!-- 0.2 -->
      <g transform="translate(112.096875 232.353962)scale(0.1 -0.1)">
       <use xlink:href="#DejaVuSans-48"/>
       <use x="63.623047" xlink:href="#DejaVuSans-46"/>
       <use x="95.410156" xlink:href="#DejaVuSans-50"/>
      </g>
     </g>
    </g>
    <g id="ytick_5">
     <g id="line2d_23">
      <path clip-path="url(#pc95260255c)" d="M 135 174.612475 
L 972 174.612475 
" style="fill:none;stroke:#b0b0b0;stroke-linecap:square;stroke-width:0.8;"/>
     </g>
     <g id="line2d_24">
      <g>
       <use style="stroke:#000000;stroke-width:0.8;" x="135" xlink:href="#m51248876b2" y="174.612475"/>
      </g>
     </g>
     <g id="text_13">
      <!-- 0.4 -->
      <g transform="translate(112.096875 178.411694)scale(0.1 -0.1)">
       <use xlink:href="#DejaVuSans-48"/>
       <use x="63.623047" xlink:href="#DejaVuSans-46"/>
       <use x="95.410156" xlink:href="#DejaVuSans-52"/>
      </g>
     </g>
    </g>
    <g id="ytick_6">
     <g id="line2d_25">
      <path clip-path="url(#pc95260255c)" d="M 135 120.670207 
L 972 120.670207 
" style="fill:none;stroke:#b0b0b0;stroke-linecap:square;stroke-width:0.8;"/>
     </g>
     <g id="line2d_26">
      <g>
       <use style="stroke:#000000;stroke-width:0.8;" x="135" xlink:href="#m51248876b2" y="120.670207"/>
      </g>
     </g>
     <g id="text_14">
      <!-- 0.6 -->
      <g transform="translate(112.096875 124.469425)scale(0.1 -0.1)">
       <use xlink:href="#DejaVuSans-48"/>
       <use x="63.623047" xlink:href="#DejaVuSans-46"/>
       <use x="95.410156" xlink:href="#DejaVuSans-54"/>
      </g>
     </g>
    </g>
    <g id="ytick_7">
     <g id="line2d_27">
      <path clip-path="url(#pc95260255c)" d="M 135 66.727938 
L 972 66.727938 
" style="fill:none;stroke:#b0b0b0;stroke-linecap:square;stroke-width:0.8;"/>
     </g>
     <g id="line2d_28">
      <g>
       <use style="stroke:#000000;stroke-width:0.8;" x="135" xlink:href="#m51248876b2" y="66.727938"/>
      </g>
     </g>
     <g id="text_15">
      <!-- 0.8 -->
      <g transform="translate(112.096875 70.527157)scale(0.1 -0.1)">
       <use xlink:href="#DejaVuSans-48"/>
       <use x="63.623047" xlink:href="#DejaVuSans-46"/>
       <use x="95.410156" xlink:href="#DejaVuSans-56"/>
      </g>
     </g>
    </g>
    <g id="text_16">
     <!-- Temperature anomaly (°C) -->
     <defs>
      <path d="M -0.296875 72.90625 
L 61.375 72.90625 
L 61.375 64.59375 
L 35.5 64.59375 
L 35.5 0 
L 25.59375 0 
L 25.59375 64.59375 
L -0.296875 64.59375 
z
" id="DejaVuSans-84"/>
      <path d="M 52 44.1875 
Q 55.375 50.25 60.0625 53.125 
Q 64.75 56 71.09375 56 
Q 79.640625 56 84.28125 50.015625 
Q 88.921875 44.046875 88.921875 33.015625 
L 88.921875 0 
L 79.890625 0 
L 79.890625 32.71875 
Q 79.890625 40.578125 77.09375 44.375 
Q 74.3125 48.1875 68.609375 48.1875 
Q 61.625 48.1875 57.5625 43.546875 
Q 53.515625 38.921875 53.515625 30.90625 
L 53.515625 0 
L 44.484375 0 
L 44.484375 32.71875 
Q 44.484375 40.625 41.703125 44.40625 
Q 38.921875 48.1875 33.109375 48.1875 
Q 26.21875 48.1875 22.15625 43.53125 
Q 18.109375 38.875 18.109375 30.90625 
L 18.109375 0 
L 9.078125 0 
L 9.078125 54.6875 
L 18.109375 54.6875 
L 18.109375 46.1875 
Q 21.1875 51.21875 25.484375 53.609375 
Q 29.78125 56 35.6875 56 
Q 41.65625 56 45.828125 52.96875 
Q 50 49.953125 52 44.1875 
z
" id="DejaVuSans-109"/>
      <path d="M 18.109375 8.203125 
L 18.109375 -20.796875 
L 9.078125 -20.796875 
L 9.078125 54.6875 
L 18.109375 54.6875 
L 18.109375 46.390625 
Q 20.953125 51.265625 25.265625 53.625 
Q 29.59375 56 35.59375 56 
Q 45.5625 56 51.78125 48.09375 
Q 58.015625 40.1875 58.015625 27.296875 
Q 58.015625 14.40625 51.78125 6.484375 
Q 45.5625 -1.421875 35.59375 -1.421875 
Q 29.59375 -1.421875 25.265625 0.953125 
Q 20.953125 3.328125 18.109375 8.203125 
z
M 48.6875 27.296875 
Q 48.6875 37.203125 44.609375 42.84375 
Q 40.53125 48.484375 33.40625 48.484375 
Q 26.265625 48.484375 22.1875 42.84375 
Q 18.109375 37.203125 18.109375 27.296875 
Q 18.109375 17.390625 22.1875 11.75 
Q 26.265625 6.109375 33.40625 6.109375 
Q 40.53125 6.109375 44.609375 11.75 
Q 48.6875 17.390625 48.6875 27.296875 
z
" id="DejaVuSans-112"/>
      <path d="M 18.3125 70.21875 
L 18.3125 54.6875 
L 36.8125 54.6875 
L 36.8125 47.703125 
L 18.3125 47.703125 
L 18.3125 18.015625 
Q 18.3125 11.328125 20.140625 9.421875 
Q 21.96875 7.515625 27.59375 7.515625 
L 36.8125 7.515625 
L 36.8125 0 
L 27.59375 0 
Q 17.1875 0 13.234375 3.875 
Q 9.28125 7.765625 9.28125 18.015625 
L 9.28125 47.703125 
L 2.6875 47.703125 
L 2.6875 54.6875 
L 9.28125 54.6875 
L 9.28125 70.21875 
z
" id="DejaVuSans-116"/>
      <path d="M 8.5 21.578125 
L 8.5 54.6875 
L 17.484375 54.6875 
L 17.484375 21.921875 
Q 17.484375 14.15625 20.5 10.265625 
Q 23.53125 6.390625 29.59375 6.390625 
Q 36.859375 6.390625 41.078125 11.03125 
Q 45.3125 15.671875 45.3125 23.6875 
L 45.3125 54.6875 
L 54.296875 54.6875 
L 54.296875 0 
L 45.3125 0 
L 45.3125 8.40625 
Q 42.046875 3.421875 37.71875 1 
Q 33.40625 -1.421875 27.6875 -1.421875 
Q 18.265625 -1.421875 13.375 4.4375 
Q 8.5 10.296875 8.5 21.578125 
z
M 31.109375 56 
z
" id="DejaVuSans-117"/>
      <path id="DejaVuSans-32"/>
      <path d="M 54.890625 33.015625 
L 54.890625 0 
L 45.90625 0 
L 45.90625 32.71875 
Q 45.90625 40.484375 42.875 44.328125 
Q 39.84375 48.1875 33.796875 48.1875 
Q 26.515625 48.1875 22.3125 43.546875 
Q 18.109375 38.921875 18.109375 30.90625 
L 18.109375 0 
L 9.078125 0 
L 9.078125 54.6875 
L 18.109375 54.6875 
L 18.109375 46.1875 
Q 21.34375 51.125 25.703125 53.5625 
Q 30.078125 56 35.796875 56 
Q 45.21875 56 50.046875 50.171875 
Q 54.890625 44.34375 54.890625 33.015625 
z
" id="DejaVuSans-110"/>
      <path d="M 30.609375 48.390625 
Q 23.390625 48.390625 19.1875 42.75 
Q 14.984375 37.109375 14.984375 27.296875 
Q 14.984375 17.484375 19.15625 11.84375 
Q 23.34375 6.203125 30.609375 6.203125 
Q 37.796875 6.203125 41.984375 11.859375 
Q 46.1875 17.53125 46.1875 27.296875 
Q 46.1875 37.015625 41.984375 42.703125 
Q 37.796875 48.390625 30.609375 48.390625 
z
M 30.609375 56 
Q 42.328125 56 49.015625 48.375 
Q 55.71875 40.765625 55.71875 27.296875 
Q 55.71875 13.875 49.015625 6.21875 
Q 42.328125 -1.421875 30.609375 -1.421875 
Q 18.84375 -1.421875 12.171875 6.21875 
Q 5.515625 13.875 5.515625 27.296875 
Q 5.515625 40.765625 12.171875 48.375 
Q 18.84375 56 30.609375 56 
z
" id="DejaVuSans-111"/>
      <path d="M 9.421875 75.984375 
L 18.40625 75.984375 
L 18.40625 0 
L 9.421875 0 
z
" id="DejaVuSans-108"/>
      <path d="M 32.171875 -5.078125 
Q 28.375 -14.84375 24.75 -17.8125 
Q 21.140625 -20.796875 15.09375 -20.796875 
L 7.90625 -20.796875 
L 7.90625 -13.28125 
L 13.1875 -13.28125 
Q 16.890625 -13.28125 18.9375 -11.515625 
Q 21 -9.765625 23.484375 -3.21875 
L 25.09375 0.875 
L 2.984375 54.6875 
L 12.5 54.6875 
L 29.59375 11.921875 
L 46.6875 54.6875 
L 56.203125 54.6875 
z
" id="DejaVuSans-121"/>
      <path d="M 31 75.875 
Q 24.46875 64.65625 21.28125 53.65625 
Q 18.109375 42.671875 18.109375 31.390625 
Q 18.109375 20.125 21.3125 9.0625 
Q 24.515625 -2 31 -13.1875 
L 23.1875 -13.1875 
Q 15.875 -1.703125 12.234375 9.375 
Q 8.59375 20.453125 8.59375 31.390625 
Q 8.59375 42.28125 12.203125 53.3125 
Q 15.828125 64.359375 23.1875 75.875 
z
" id="DejaVuSans-40"/>
      <path d="M 25 67.921875 
Q 21.09375 67.921875 18.40625 65.203125 
Q 15.71875 62.5 15.71875 58.59375 
Q 15.71875 54.734375 18.40625 52.078125 
Q 21.09375 49.421875 25 49.421875 
Q 28.90625 49.421875 31.59375 52.078125 
Q 34.28125 54.734375 34.28125 58.59375 
Q 34.28125 62.453125 31.5625 65.1875 
Q 28.859375 67.921875 25 67.921875 
z
M 25 74.21875 
Q 28.125 74.21875 31 73.015625 
Q 33.890625 71.828125 35.984375 69.578125 
Q 38.234375 67.390625 39.359375 64.59375 
Q 40.484375 61.8125 40.484375 58.59375 
Q 40.484375 52.15625 35.96875 47.6875 
Q 31.453125 43.21875 24.90625 43.21875 
Q 18.3125 43.21875 13.90625 47.609375 
Q 9.515625 52 9.515625 58.59375 
Q 9.515625 65.140625 14 69.671875 
Q 18.5 74.21875 25 74.21875 
z
" id="DejaVuSans-176"/>
      <path d="M 64.40625 67.28125 
L 64.40625 56.890625 
Q 59.421875 61.53125 53.78125 63.8125 
Q 48.140625 66.109375 41.796875 66.109375 
Q 29.296875 66.109375 22.65625 58.46875 
Q 16.015625 50.828125 16.015625 36.375 
Q 16.015625 21.96875 22.65625 14.328125 
Q 29.296875 6.6875 41.796875 6.6875 
Q 48.140625 6.6875 53.78125 8.984375 
Q 59.421875 11.28125 64.40625 15.921875 
L 64.40625 5.609375 
Q 59.234375 2.09375 53.4375 0.328125 
Q 47.65625 -1.421875 41.21875 -1.421875 
Q 24.65625 -1.421875 15.125 8.703125 
Q 5.609375 18.84375 5.609375 36.375 
Q 5.609375 53.953125 15.125 64.078125 
Q 24.65625 74.21875 41.21875 74.21875 
Q 47.75 74.21875 53.53125 72.484375 
Q 59.328125 70.75 64.40625 67.28125 
z
" id="DejaVuSans-67"/>
      <path d="M 8.015625 75.875 
L 15.828125 75.875 
Q 23.140625 64.359375 26.78125 53.3125 
Q 30.421875 42.28125 30.421875 31.390625 
Q 30.421875 20.453125 26.78125 9.375 
Q 23.140625 -1.703125 15.828125 -13.1875 
L 8.015625 -13.1875 
Q 14.5 -2 17.703125 9.0625 
Q 20.90625 20.125 20.90625 31.390625 
Q 20.90625 42.671875 17.703125 53.65625 
Q 14.5 64.65625 8.015625 75.875 
z
" id="DejaVuSans-41"/>
     </defs>
     <g transform="translate(96.597656 351.634922)rotate(-90)scale(0.15 -0.15)">
      <use xlink:href="#DejaVuSans-84"/>
      <use x="60.818359" xlink:href="#DejaVuSans-101"/>
      <use x="122.341797" xlink:href="#DejaVuSans-109"/>
      <use x="219.753906" xlink:href="#DejaVuSans-112"/>
      <use x="283.230469" xlink:href="#DejaVuSans-101"/>
      <use x="344.753906" xlink:href="#DejaVuSans-114"/>
      <use x="385.867188" xlink:href="#DejaVuSans-97"/>
      <use x="447.146484" xlink:href="#DejaVuSans-116"/>
      <use x="486.355469" xlink:href="#DejaVuSans-117"/>
      <use x="549.734375" xlink:href="#DejaVuSans-114"/>
      <use x="590.816406" xlink:href="#DejaVuSans-101"/>
      <use x="652.339844" xlink:href="#DejaVuSans-32"/>
      <use x="684.126953" xlink:href="#DejaVuSans-97"/>
      <use x="745.40625" xlink:href="#DejaVuSans-110"/>
      <use x="808.785156" xlink:href="#DejaVuSans-111"/>
      <use x="869.966797" xlink:href="#DejaVuSans-109"/>
      <use x="967.378906" xlink:href="#DejaVuSans-97"/>
      <use x="1028.658203" xlink:href="#DejaVuSans-108"/>
      <use x="1056.441406" xlink:href="#DejaVuSans-121"/>
      <use x="1115.621094" xlink:href="#DejaVuSans-32"/>
      <use x="1147.408203" xlink:href="#DejaVuSans-40"/>
      <use x="1186.421875" xlink:href="#DejaVuSans-176"/>
      <use x="1236.421875" xlink:href="#DejaVuSans-67"/>
      <use x="1306.246094" xlink:href="#DejaVuSans-41"/>
     </g>
    </g>
   </g>
   <g id="line2d_29">
    <path clip-path="url(#pc95260255c)" d="M 173.045455 324.472338 
L 179.662055 343.509464 
L 186.278656 374.526268 
L 192.895257 407.363624 
L 199.511858 414.421071 
L 206.128458 375.51521 
L 212.745059 354.680009 
L 219.36166 397.047165 
L 225.978261 406.936581 
L 232.594862 419.837774 
L 239.211462 412.083573 
L 245.828063 423.703636 
L 252.444664 396.417839 
L 259.061265 387.899456 
L 265.677866 342.722806 
L 272.294466 324.51729 
L 278.911067 389.899815 
L 285.527668 414.600879 
L 292.144269 374.121701 
L 298.76087 361.467744 
L 305.37747 356.208373 
L 311.994071 335.755263 
L 318.610672 359.961856 
L 325.227273 355.78133 
L 331.843874 352.67965 
L 338.460474 338.924371 
L 345.077075 298.265386 
L 351.693676 330.316084 
L 358.310277 327.618971 
L 364.926877 372.07639 
L 371.543478 316.763089 
L 378.160079 301.726682 
L 384.77668 312.582563 
L 391.393281 359.804524 
L 398.009881 324.315007 
L 404.626482 331.237598 
L 411.243083 318.471261 
L 417.859684 282.240037 
L 424.476285 284.240396 
L 431.092885 281.745566 
L 437.709486 262.9332 
L 444.326087 259.539333 
L 450.942688 275.542206 
L 457.559289 270.237882 
L 464.175889 242.165427 
L 470.79249 274.081269 
L 477.409091 292.42164 
L 484.025692 279.632828 
L 490.642292 292.848683 
L 497.258893 303.210094 
L 503.875494 325.663563 
L 510.492095 279.363116 
L 517.108696 265.360602 
L 523.725296 249.717344 
L 530.341897 301.097355 
L 536.958498 316.268618 
L 543.575099 334.698893 
L 550.1917 262.393778 
L 556.8083 260.236087 
L 563.424901 271.451584 
L 570.041502 284.55506 
L 576.658103 260.820461 
L 583.274704 275.474778 
L 589.891304 261.697023 
L 596.507905 331.709593 
L 603.124506 310.4923 
L 609.741107 291.904694 
L 616.357708 283.948209 
L 622.974308 292.106977 
L 629.590909 257.966016 
L 636.20751 273.564322 
L 642.824111 309.346027 
L 649.440711 284.285348 
L 656.057312 254.12263 
L 662.673913 317.954314 
L 669.290514 298.917189 
L 675.907115 327.933634 
L 682.523715 253.17864 
L 689.140316 282.127657 
L 695.756917 251.582848 
L 702.373518 230.635267 
L 708.990119 224.072291 
L 715.606719 271.069492 
L 722.22332 222.97097 
L 728.839921 270.462642 
L 735.456522 271.406632 
L 742.073123 259.71914 
L 748.689723 221.824696 
L 755.306324 213.396217 
L 761.922925 244.188262 
L 768.539526 193.549957 
L 775.156126 202.000913 
L 781.772727 241.109057 
L 788.389328 237.49043 
L 795.005929 218.992727 
L 801.62253 191.257411 
L 808.23913 221.779745 
L 814.855731 170.759349 
L 821.472332 140.506727 
L 828.088933 201.371586 
L 834.705534 198.584569 
L 841.322134 156.28484 
L 847.938735 139.652641 
L 854.555336 140.349395 
L 861.171937 159.049382 
L 867.788538 126.144598 
L 874.405138 143.878118 
L 881.021739 140.147112 
L 887.63834 168.75899 
L 894.254941 140.192063 
L 900.871542 121.761788 
L 907.488142 155.745418 
L 914.104743 146.889895 
L 920.721344 132.842429 
L 927.337945 117.04184 
L 933.954545 77.776364 
" style="fill:none;stroke:#ff0000;stroke-linecap:square;stroke-width:1.5;"/>
    <defs>
     <path d="M 0 3 
C 0.795609 3 1.55874 2.683901 2.12132 2.12132 
C 2.683901 1.55874 3 0.795609 3 0 
C 3 -0.795609 2.683901 -1.55874 2.12132 -2.12132 
C 1.55874 -2.683901 0.795609 -3 0 -3 
C -0.795609 -3 -1.55874 -2.683901 -2.12132 -2.12132 
C -2.683901 -1.55874 -3 -0.795609 -3 0 
C -3 0.795609 -2.683901 1.55874 -2.12132 2.12132 
C -1.55874 2.683901 -0.795609 3 0 3 
z
" id="m3d256b29a8" style="stroke:#ff0000;"/>
    </defs>
    <g clip-path="url(#pc95260255c)">
     <use style="fill:#ff0000;stroke:#ff0000;" x="173.045455" xlink:href="#m3d256b29a8" y="324.472338"/>
     <use style="fill:#ff0000;stroke:#ff0000;" x="179.662055" xlink:href="#m3d256b29a8" y="343.509464"/>
     <use style="fill:#ff0000;stroke:#ff0000;" x="186.278656" xlink:href="#m3d256b29a8" y="374.526268"/>
     <use style="fill:#ff0000;stroke:#ff0000;" x="192.895257" xlink:href="#m3d256b29a8" y="407.363624"/>
     <use style="fill:#ff0000;stroke:#ff0000;" x="199.511858" xlink:href="#m3d256b29a8" y="414.421071"/>
     <use style="fill:#ff0000;stroke:#ff0000;" x="206.128458" xlink:href="#m3d256b29a8" y="375.51521"/>
     <use style="fill:#ff0000;stroke:#ff0000;" x="212.745059" xlink:href="#m3d256b29a8" y="354.680009"/>
     <use style="fill:#ff0000;stroke:#ff0000;" x="219.36166" xlink:href="#m3d256b29a8" y="397.047165"/>
     <use style="fill:#ff0000;stroke:#ff0000;" x="225.978261" xlink:href="#m3d256b29a8" y="406.936581"/>
     <use style="fill:#ff0000;stroke:#ff0000;" x="232.594862" xlink:href="#m3d256b29a8" y="419.837774"/>
     <use style="fill:#ff0000;stroke:#ff0000;" x="239.211462" xlink:href="#m3d256b29a8" y="412.083573"/>
     <use style="fill:#ff0000;stroke:#ff0000;" x="245.828063" xlink:href="#m3d256b29a8" y="423.703636"/>
     <use style="fill:#ff0000;stroke:#ff0000;" x="252.444664" xlink:href="#m3d256b29a8" y="396.417839"/>
     <use style="fill:#ff0000;stroke:#ff0000;" x="259.061265" xlink:href="#m3d256b29a8" y="387.899456"/>
     <use style="fill:#ff0000;stroke:#ff0000;" x="265.677866" xlink:href="#m3d256b29a8" y="342.722806"/>
     <use style="fill:#ff0000;stroke:#ff0000;" x="272.294466" xlink:href="#m3d256b29a8" y="324.51729"/>
     <use style="fill:#ff0000;stroke:#ff0000;" x="278.911067" xlink:href="#m3d256b29a8" y="389.899815"/>
     <use style="fill:#ff0000;stroke:#ff0000;" x="285.527668" xlink:href="#m3d256b29a8" y="414.600879"/>
     <use style="fill:#ff0000;stroke:#ff0000;" x="292.144269" xlink:href="#m3d256b29a8" y="374.121701"/>
     <use style="fill:#ff0000;stroke:#ff0000;" x="298.76087" xlink:href="#m3d256b29a8" y="361.467744"/>
     <use style="fill:#ff0000;stroke:#ff0000;" x="305.37747" xlink:href="#m3d256b29a8" y="356.208373"/>
     <use style="fill:#ff0000;stroke:#ff0000;" x="311.994071" xlink:href="#m3d256b29a8" y="335.755263"/>
     <use style="fill:#ff0000;stroke:#ff0000;" x="318.610672" xlink:href="#m3d256b29a8" y="359.961856"/>
     <use style="fill:#ff0000;stroke:#ff0000;" x="325.227273" xlink:href="#m3d256b29a8" y="355.78133"/>
     <use style="fill:#ff0000;stroke:#ff0000;" x="331.843874" xlink:href="#m3d256b29a8" y="352.67965"/>
     <use style="fill:#ff0000;stroke:#ff0000;" x="338.460474" xlink:href="#m3d256b29a8" y="338.924371"/>
     <use style="fill:#ff0000;stroke:#ff0000;" x="345.077075" xlink:href="#m3d256b29a8" y="298.265386"/>
     <use style="fill:#ff0000;stroke:#ff0000;" x="351.693676" xlink:href="#m3d256b29a8" y="330.316084"/>
     <use style="fill:#ff0000;stroke:#ff0000;" x="358.310277" xlink:href="#m3d256b29a8" y="327.618971"/>
     <use style="fill:#ff0000;stroke:#ff0000;" x="364.926877" xlink:href="#m3d256b29a8" y="372.07639"/>
     <use style="fill:#ff0000;stroke:#ff0000;" x="371.543478" xlink:href="#m3d256b29a8" y="316.763089"/>
     <use style="fill:#ff0000;stroke:#ff0000;" x="378.160079" xlink:href="#m3d256b29a8" y="301.726682"/>
     <use style="fill:#ff0000;stroke:#ff0000;" x="384.77668" xlink:href="#m3d256b29a8" y="312.582563"/>
     <use style="fill:#ff0000;stroke:#ff0000;" x="391.393281" xlink:href="#m3d256b29a8" y="359.804524"/>
     <use style="fill:#ff0000;stroke:#ff0000;" x="398.009881" xlink:href="#m3d256b29a8" y="324.315007"/>
     <use style="fill:#ff0000;stroke:#ff0000;" x="404.626482" xlink:href="#m3d256b29a8" y="331.237598"/>
     <use style="fill:#ff0000;stroke:#ff0000;" x="411.243083" xlink:href="#m3d256b29a8" y="318.471261"/>
     <use style="fill:#ff0000;stroke:#ff0000;" x="417.859684" xlink:href="#m3d256b29a8" y="282.240037"/>
     <use style="fill:#ff0000;stroke:#ff0000;" x="424.476285" xlink:href="#m3d256b29a8" y="284.240396"/>
     <use style="fill:#ff0000;stroke:#ff0000;" x="431.092885" xlink:href="#m3d256b29a8" y="281.745566"/>
     <use style="fill:#ff0000;stroke:#ff0000;" x="437.709486" xlink:href="#m3d256b29a8" y="262.9332"/>
     <use style="fill:#ff0000;stroke:#ff0000;" x="444.326087" xlink:href="#m3d256b29a8" y="259.539333"/>
     <use style="fill:#ff0000;stroke:#ff0000;" x="450.942688" xlink:href="#m3d256b29a8" y="275.542206"/>
     <use style="fill:#ff0000;stroke:#ff0000;" x="457.559289" xlink:href="#m3d256b29a8" y="270.237882"/>
     <use style="fill:#ff0000;stroke:#ff0000;" x="464.175889" xlink:href="#m3d256b29a8" y="242.165427"/>
     <use style="fill:#ff0000;stroke:#ff0000;" x="470.79249" xlink:href="#m3d256b29a8" y="274.081269"/>
     <use style="fill:#ff0000;stroke:#ff0000;" x="477.409091" xlink:href="#m3d256b29a8" y="292.42164"/>
     <use style="fill:#ff0000;stroke:#ff0000;" x="484.025692" xlink:href="#m3d256b29a8" y="279.632828"/>
     <use style="fill:#ff0000;stroke:#ff0000;" x="490.642292" xlink:href="#m3d256b29a8" y="292.848683"/>
     <use style="fill:#ff0000;stroke:#ff0000;" x="497.258893" xlink:href="#m3d256b29a8" y="303.210094"/>
     <use style="fill:#ff0000;stroke:#ff0000;" x="503.875494" xlink:href="#m3d256b29a8" y="325.663563"/>
     <use style="fill:#ff0000;stroke:#ff0000;" x="510.492095" xlink:href="#m3d256b29a8" y="279.363116"/>
     <use style="fill:#ff0000;stroke:#ff0000;" x="517.108696" xlink:href="#m3d256b29a8" y="265.360602"/>
     <use style="fill:#ff0000;stroke:#ff0000;" x="523.725296" xlink:href="#m3d256b29a8" y="249.717344"/>
     <use style="fill:#ff0000;stroke:#ff0000;" x="530.341897" xlink:href="#m3d256b29a8" y="301.097355"/>
     <use style="fill:#ff0000;stroke:#ff0000;" x="536.958498" xlink:href="#m3d256b29a8" y="316.268618"/>
     <use style="fill:#ff0000;stroke:#ff0000;" x="543.575099" xlink:href="#m3d256b29a8" y="334.698893"/>
     <use style="fill:#ff0000;stroke:#ff0000;" x="550.1917" xlink:href="#m3d256b29a8" y="262.393778"/>
     <use style="fill:#ff0000;stroke:#ff0000;" x="556.8083" xlink:href="#m3d256b29a8" y="260.236087"/>
     <use style="fill:#ff0000;stroke:#ff0000;" x="563.424901" xlink:href="#m3d256b29a8" y="271.451584"/>
     <use style="fill:#ff0000;stroke:#ff0000;" x="570.041502" xlink:href="#m3d256b29a8" y="284.55506"/>
     <use style="fill:#ff0000;stroke:#ff0000;" x="576.658103" xlink:href="#m3d256b29a8" y="260.820461"/>
     <use style="fill:#ff0000;stroke:#ff0000;" x="583.274704" xlink:href="#m3d256b29a8" y="275.474778"/>
     <use style="fill:#ff0000;stroke:#ff0000;" x="589.891304" xlink:href="#m3d256b29a8" y="261.697023"/>
     <use style="fill:#ff0000;stroke:#ff0000;" x="596.507905" xlink:href="#m3d256b29a8" y="331.709593"/>
     <use style="fill:#ff0000;stroke:#ff0000;" x="603.124506" xlink:href="#m3d256b29a8" y="310.4923"/>
     <use style="fill:#ff0000;stroke:#ff0000;" x="609.741107" xlink:href="#m3d256b29a8" y="291.904694"/>
     <use style="fill:#ff0000;stroke:#ff0000;" x="616.357708" xlink:href="#m3d256b29a8" y="283.948209"/>
     <use style="fill:#ff0000;stroke:#ff0000;" x="622.974308" xlink:href="#m3d256b29a8" y="292.106977"/>
     <use style="fill:#ff0000;stroke:#ff0000;" x="629.590909" xlink:href="#m3d256b29a8" y="257.966016"/>
     <use style="fill:#ff0000;stroke:#ff0000;" x="636.20751" xlink:href="#m3d256b29a8" y="273.564322"/>
     <use style="fill:#ff0000;stroke:#ff0000;" x="642.824111" xlink:href="#m3d256b29a8" y="309.346027"/>
     <use style="fill:#ff0000;stroke:#ff0000;" x="649.440711" xlink:href="#m3d256b29a8" y="284.285348"/>
     <use style="fill:#ff0000;stroke:#ff0000;" x="656.057312" xlink:href="#m3d256b29a8" y="254.12263"/>
     <use style="fill:#ff0000;stroke:#ff0000;" x="662.673913" xlink:href="#m3d256b29a8" y="317.954314"/>
     <use style="fill:#ff0000;stroke:#ff0000;" x="669.290514" xlink:href="#m3d256b29a8" y="298.917189"/>
     <use style="fill:#ff0000;stroke:#ff0000;" x="675.907115" xlink:href="#m3d256b29a8" y="327.933634"/>
     <use style="fill:#ff0000;stroke:#ff0000;" x="682.523715" xlink:href="#m3d256b29a8" y="253.17864"/>
     <use style="fill:#ff0000;stroke:#ff0000;" x="689.140316" xlink:href="#m3d256b29a8" y="282.127657"/>
     <use style="fill:#ff0000;stroke:#ff0000;" x="695.756917" xlink:href="#m3d256b29a8" y="251.582848"/>
     <use style="fill:#ff0000;stroke:#ff0000;" x="702.373518" xlink:href="#m3d256b29a8" y="230.635267"/>
     <use style="fill:#ff0000;stroke:#ff0000;" x="708.990119" xlink:href="#m3d256b29a8" y="224.072291"/>
     <use style="fill:#ff0000;stroke:#ff0000;" x="715.606719" xlink:href="#m3d256b29a8" y="271.069492"/>
     <use style="fill:#ff0000;stroke:#ff0000;" x="722.22332" xlink:href="#m3d256b29a8" y="222.97097"/>
     <use style="fill:#ff0000;stroke:#ff0000;" x="728.839921" xlink:href="#m3d256b29a8" y="270.462642"/>
     <use style="fill:#ff0000;stroke:#ff0000;" x="735.456522" xlink:href="#m3d256b29a8" y="271.406632"/>
     <use style="fill:#ff0000;stroke:#ff0000;" x="742.073123" xlink:href="#m3d256b29a8" y="259.71914"/>
     <use style="fill:#ff0000;stroke:#ff0000;" x="748.689723" xlink:href="#m3d256b29a8" y="221.824696"/>
     <use style="fill:#ff0000;stroke:#ff0000;" x="755.306324" xlink:href="#m3d256b29a8" y="213.396217"/>
     <use style="fill:#ff0000;stroke:#ff0000;" x="761.922925" xlink:href="#m3d256b29a8" y="244.188262"/>
     <use style="fill:#ff0000;stroke:#ff0000;" x="768.539526" xlink:href="#m3d256b29a8" y="193.549957"/>
     <use style="fill:#ff0000;stroke:#ff0000;" x="775.156126" xlink:href="#m3d256b29a8" y="202.000913"/>
     <use style="fill:#ff0000;stroke:#ff0000;" x="781.772727" xlink:href="#m3d256b29a8" y="241.109057"/>
     <use style="fill:#ff0000;stroke:#ff0000;" x="788.389328" xlink:href="#m3d256b29a8" y="237.49043"/>
     <use style="fill:#ff0000;stroke:#ff0000;" x="795.005929" xlink:href="#m3d256b29a8" y="218.992727"/>
     <use style="fill:#ff0000;stroke:#ff0000;" x="801.62253" xlink:href="#m3d256b29a8" y="191.257411"/>
     <use style="fill:#ff0000;stroke:#ff0000;" x="808.23913" xlink:href="#m3d256b29a8" y="221.779745"/>
     <use style="fill:#ff0000;stroke:#ff0000;" x="814.855731" xlink:href="#m3d256b29a8" y="170.759349"/>
     <use style="fill:#ff0000;stroke:#ff0000;" x="821.472332" xlink:href="#m3d256b29a8" y="140.506727"/>
     <use style="fill:#ff0000;stroke:#ff0000;" x="828.088933" xlink:href="#m3d256b29a8" y="201.371586"/>
     <use style="fill:#ff0000;stroke:#ff0000;" x="834.705534" xlink:href="#m3d256b29a8" y="198.584569"/>
     <use style="fill:#ff0000;stroke:#ff0000;" x="841.322134" xlink:href="#m3d256b29a8" y="156.28484"/>
     <use style="fill:#ff0000;stroke:#ff0000;" x="847.938735" xlink:href="#m3d256b29a8" y="139.652641"/>
     <use style="fill:#ff0000;stroke:#ff0000;" x="854.555336" xlink:href="#m3d256b29a8" y="140.349395"/>
     <use style="fill:#ff0000;stroke:#ff0000;" x="861.171937" xlink:href="#m3d256b29a8" y="159.049382"/>
     <use style="fill:#ff0000;stroke:#ff0000;" x="867.788538" xlink:href="#m3d256b29a8" y="126.144598"/>
     <use style="fill:#ff0000;stroke:#ff0000;" x="874.405138" xlink:href="#m3d256b29a8" y="143.878118"/>
     <use style="fill:#ff0000;stroke:#ff0000;" x="881.021739" xlink:href="#m3d256b29a8" y="140.147112"/>
     <use style="fill:#ff0000;stroke:#ff0000;" x="887.63834" xlink:href="#m3d256b29a8" y="168.75899"/>
     <use style="fill:#ff0000;stroke:#ff0000;" x="894.254941" xlink:href="#m3d256b29a8" y="140.192063"/>
     <use style="fill:#ff0000;stroke:#ff0000;" x="900.871542" xlink:href="#m3d256b29a8" y="121.761788"/>
     <use style="fill:#ff0000;stroke:#ff0000;" x="907.488142" xlink:href="#m3d256b29a8" y="155.745418"/>
     <use style="fill:#ff0000;stroke:#ff0000;" x="914.104743" xlink:href="#m3d256b29a8" y="146.889895"/>
     <use style="fill:#ff0000;stroke:#ff0000;" x="920.721344" xlink:href="#m3d256b29a8" y="132.842429"/>
     <use style="fill:#ff0000;stroke:#ff0000;" x="927.337945" xlink:href="#m3d256b29a8" y="117.04184"/>
     <use style="fill:#ff0000;stroke:#ff0000;" x="933.954545" xlink:href="#m3d256b29a8" y="77.776364"/>
    </g>
   </g>
   <g id="patch_3">
    <path d="M 135 441 
L 135 60.48 
" style="fill:none;stroke:#000000;stroke-linecap:square;stroke-linejoin:miter;stroke-width:0.8;"/>
   </g>
   <g id="patch_4">
    <path d="M 972 441 
L 972 60.48 
" style="fill:none;stroke:#000000;stroke-linecap:square;stroke-linejoin:miter;stroke-width:0.8;"/>
   </g>
   <g id="patch_5">
    <path d="M 135 441 
L 972 441 
" style="fill:none;stroke:#000000;stroke-linecap:square;stroke-linejoin:miter;stroke-width:0.8;"/>
   </g>
   <g id="patch_6">
    <path d="M 135 60.48 
L 972 60.48 
" style="fill:none;stroke:#000000;stroke-linecap:square;stroke-linejoin:miter;stroke-width:0.8;"/>
   </g>
   <g id="legend_1">
    <g id="patch_7">
     <path d="M 144.1 109.043125 
L 342.345937 109.043125 
Q 344.945938 109.043125 344.945938 106.443125 
L 344.945938 69.58 
Q 344.945938 66.98 342.345937 66.98 
L 144.1 66.98 
Q 141.5 66.98 141.5 69.58 
L 141.5 106.443125 
Q 141.5 109.043125 144.1 109.043125 
z
" style="fill:#ffffff;opacity:0.8;stroke:#cccccc;stroke-linejoin:miter;"/>
    </g>
    <g id="line2d_30">
     <path d="M 146.7 77.507969 
L 172.7 77.507969 
" style="fill:none;stroke:#ff0000;stroke-linecap:square;stroke-width:1.5;"/>
    </g>
    <g id="line2d_31">
     <g>
      <use style="fill:#ff0000;stroke:#ff0000;" x="159.7" xlink:href="#m3d256b29a8" y="77.507969"/>
     </g>
    </g>
    <g id="text_17">
     <!-- Temperature Anomalies -->
     <defs>
      <path d="M 34.1875 63.1875 
L 20.796875 26.90625 
L 47.609375 26.90625 
z
M 28.609375 72.90625 
L 39.796875 72.90625 
L 67.578125 0 
L 57.328125 0 
L 50.6875 18.703125 
L 17.828125 18.703125 
L 11.1875 0 
L 0.78125 0 
z
" id="DejaVuSans-65"/>
      <path d="M 9.421875 54.6875 
L 18.40625 54.6875 
L 18.40625 0 
L 9.421875 0 
z
M 9.421875 75.984375 
L 18.40625 75.984375 
L 18.40625 64.59375 
L 9.421875 64.59375 
z
" id="DejaVuSans-105"/>
      <path d="M 44.28125 53.078125 
L 44.28125 44.578125 
Q 40.484375 46.53125 36.375 47.5 
Q 32.28125 48.484375 27.875 48.484375 
Q 21.1875 48.484375 17.84375 46.4375 
Q 14.5 44.390625 14.5 40.28125 
Q 14.5 37.15625 16.890625 35.375 
Q 19.28125 33.59375 26.515625 31.984375 
L 29.59375 31.296875 
Q 39.15625 29.25 43.1875 25.515625 
Q 47.21875 21.78125 47.21875 15.09375 
Q 47.21875 7.46875 41.1875 3.015625 
Q 35.15625 -1.421875 24.609375 -1.421875 
Q 20.21875 -1.421875 15.453125 -0.5625 
Q 10.6875 0.296875 5.421875 2 
L 5.421875 11.28125 
Q 10.40625 8.6875 15.234375 7.390625 
Q 20.0625 6.109375 24.8125 6.109375 
Q 31.15625 6.109375 34.5625 8.28125 
Q 37.984375 10.453125 37.984375 14.40625 
Q 37.984375 18.0625 35.515625 20.015625 
Q 33.0625 21.96875 24.703125 23.78125 
L 21.578125 24.515625 
Q 13.234375 26.265625 9.515625 29.90625 
Q 5.8125 33.546875 5.8125 39.890625 
Q 5.8125 47.609375 11.28125 51.796875 
Q 16.75 56 26.8125 56 
Q 31.78125 56 36.171875 55.265625 
Q 40.578125 54.546875 44.28125 53.078125 
z
" id="DejaVuSans-115"/>
     </defs>
     <g transform="translate(183.1 82.057969)scale(0.13 -0.13)">
      <use xlink:href="#DejaVuSans-84"/>
      <use x="60.818359" xlink:href="#DejaVuSans-101"/>
      <use x="122.341797" xlink:href="#DejaVuSans-109"/>
      <use x="219.753906" xlink:href="#DejaVuSans-112"/>
      <use x="283.230469" xlink:href="#DejaVuSans-101"/>
      <use x="344.753906" xlink:href="#DejaVuSans-114"/>
      <use x="385.867188" xlink:href="#DejaVuSans-97"/>
      <use x="447.146484" xlink:href="#DejaVuSans-116"/>
      <use x="486.355469" xlink:href="#DejaVuSans-117"/>
      <use x="549.734375" xlink:href="#DejaVuSans-114"/>
      <use x="590.816406" xlink:href="#DejaVuSans-101"/>
      <use x="652.339844" xlink:href="#DejaVuSans-32"/>
      <use x="684.126953" xlink:href="#DejaVuSans-65"/>
      <use x="752.535156" xlink:href="#DejaVuSans-110"/>
      <use x="815.914062" xlink:href="#DejaVuSans-111"/>
      <use x="877.095703" xlink:href="#DejaVuSans-109"/>
      <use x="974.507812" xlink:href="#DejaVuSans-97"/>
      <use x="1035.787109" xlink:href="#DejaVuSans-108"/>
      <use x="1063.570312" xlink:href="#DejaVuSans-105"/>
      <use x="1091.353516" xlink:href="#DejaVuSans-101"/>
      <use x="1152.876953" xlink:href="#DejaVuSans-115"/>
     </g>
    </g>
    <g id="line2d_32">
     <path d="M 146.7 96.589531 
L 172.7 96.589531 
" style="fill:none;stroke:#0000ff;stroke-linecap:square;stroke-width:1.5;"/>
    </g>
    <g id="line2d_33">
     <defs>
      <path d="M 0 3 
C 0.795609 3 1.55874 2.683901 2.12132 2.12132 
C 2.683901 1.55874 3 0.795609 3 0 
C 3 -0.795609 2.683901 -1.55874 2.12132 -2.12132 
C 1.55874 -2.683901 0.795609 -3 0 -3 
C -0.795609 -3 -1.55874 -2.683901 -2.12132 -2.12132 
C -2.683901 -1.55874 -3 -0.795609 -3 0 
C -3 0.795609 -2.683901 1.55874 -2.12132 2.12132 
C -1.55874 2.683901 -0.795609 3 0 3 
z
" id="m577e487879" style="stroke:#0000ff;"/>
     </defs>
     <g>
      <use style="fill:#0000ff;stroke:#0000ff;" x="159.7" xlink:href="#m577e487879" y="96.589531"/>
     </g>
    </g>
    <g id="text_18">
     <!-- Natural Disasters -->
     <defs>
      <path d="M 9.8125 72.90625 
L 23.09375 72.90625 
L 55.421875 11.921875 
L 55.421875 72.90625 
L 64.984375 72.90625 
L 64.984375 0 
L 51.703125 0 
L 19.390625 60.984375 
L 19.390625 0 
L 9.8125 0 
z
" id="DejaVuSans-78"/>
      <path d="M 19.671875 64.796875 
L 19.671875 8.109375 
L 31.59375 8.109375 
Q 46.6875 8.109375 53.6875 14.9375 
Q 60.6875 21.78125 60.6875 36.53125 
Q 60.6875 51.171875 53.6875 57.984375 
Q 46.6875 64.796875 31.59375 64.796875 
z
M 9.8125 72.90625 
L 30.078125 72.90625 
Q 51.265625 72.90625 61.171875 64.09375 
Q 71.09375 55.28125 71.09375 36.53125 
Q 71.09375 17.671875 61.125 8.828125 
Q 51.171875 0 30.078125 0 
L 9.8125 0 
z
" id="DejaVuSans-68"/>
     </defs>
     <g transform="translate(183.1 101.139531)scale(0.13 -0.13)">
      <use xlink:href="#DejaVuSans-78"/>
      <use x="74.804688" xlink:href="#DejaVuSans-97"/>
      <use x="136.083984" xlink:href="#DejaVuSans-116"/>
      <use x="175.292969" xlink:href="#DejaVuSans-117"/>
      <use x="238.671875" xlink:href="#DejaVuSans-114"/>
      <use x="279.785156" xlink:href="#DejaVuSans-97"/>
      <use x="341.064453" xlink:href="#DejaVuSans-108"/>
      <use x="368.847656" xlink:href="#DejaVuSans-32"/>
      <use x="400.634766" xlink:href="#DejaVuSans-68"/>
      <use x="477.636719" xlink:href="#DejaVuSans-105"/>
      <use x="505.419922" xlink:href="#DejaVuSans-115"/>
      <use x="557.519531" xlink:href="#DejaVuSans-97"/>
      <use x="618.798828" xlink:href="#DejaVuSans-115"/>
      <use x="670.898438" xlink:href="#DejaVuSans-116"/>
      <use x="710.107422" xlink:href="#DejaVuSans-101"/>
      <use x="771.630859" xlink:href="#DejaVuSans-114"/>
      <use x="812.744141" xlink:href="#DejaVuSans-115"/>
     </g>
    </g>
   </g>
  </g>
  <g id="axes_2">
   <g id="matplotlib.axis_3">
    <g id="ytick_8">
     <g id="line2d_34">
      <defs>
       <path d="M 0 0 
L 3.5 0 
" id="mde8a71aa7e" style="stroke:#000000;stroke-width:0.8;"/>
      </defs>
      <g>
       <use style="stroke:#000000;stroke-width:0.8;" x="972" xlink:href="#mde8a71aa7e" y="425.3126"/>
      </g>
     </g>
     <g id="text_19">
      <!-- 0 -->
      <g transform="translate(979 429.111819)scale(0.1 -0.1)">
       <use xlink:href="#DejaVuSans-48"/>
      </g>
     </g>
    </g>
    <g id="ytick_9">
     <g id="line2d_35">
      <g>
       <use style="stroke:#000000;stroke-width:0.8;" x="972" xlink:href="#mde8a71aa7e" y="344.864397"/>
      </g>
     </g>
     <g id="text_20">
      <!-- 100 -->
      <g transform="translate(979 348.663616)scale(0.1 -0.1)">
       <use xlink:href="#DejaVuSans-49"/>
       <use x="63.623047" xlink:href="#DejaVuSans-48"/>
       <use x="127.246094" xlink:href="#DejaVuSans-48"/>
      </g>
     </g>
    </g>
    <g id="ytick_10">
     <g id="line2d_36">
      <g>
       <use style="stroke:#000000;stroke-width:0.8;" x="972" xlink:href="#mde8a71aa7e" y="264.416195"/>
      </g>
     </g>
     <g id="text_21">
      <!-- 200 -->
      <g transform="translate(979 268.215413)scale(0.1 -0.1)">
       <use xlink:href="#DejaVuSans-50"/>
       <use x="63.623047" xlink:href="#DejaVuSans-48"/>
       <use x="127.246094" xlink:href="#DejaVuSans-48"/>
      </g>
     </g>
    </g>
    <g id="ytick_11">
     <g id="line2d_37">
      <g>
       <use style="stroke:#000000;stroke-width:0.8;" x="972" xlink:href="#mde8a71aa7e" y="183.967992"/>
      </g>
     </g>
     <g id="text_22">
      <!-- 300 -->
      <defs>
       <path d="M 40.578125 39.3125 
Q 47.65625 37.796875 51.625 33 
Q 55.609375 28.21875 55.609375 21.1875 
Q 55.609375 10.40625 48.1875 4.484375 
Q 40.765625 -1.421875 27.09375 -1.421875 
Q 22.515625 -1.421875 17.65625 -0.515625 
Q 12.796875 0.390625 7.625 2.203125 
L 7.625 11.71875 
Q 11.71875 9.328125 16.59375 8.109375 
Q 21.484375 6.890625 26.8125 6.890625 
Q 36.078125 6.890625 40.9375 10.546875 
Q 45.796875 14.203125 45.796875 21.1875 
Q 45.796875 27.640625 41.28125 31.265625 
Q 36.765625 34.90625 28.71875 34.90625 
L 20.21875 34.90625 
L 20.21875 43.015625 
L 29.109375 43.015625 
Q 36.375 43.015625 40.234375 45.921875 
Q 44.09375 48.828125 44.09375 54.296875 
Q 44.09375 59.90625 40.109375 62.90625 
Q 36.140625 65.921875 28.71875 65.921875 
Q 24.65625 65.921875 20.015625 65.03125 
Q 15.375 64.15625 9.8125 62.3125 
L 9.8125 71.09375 
Q 15.4375 72.65625 20.34375 73.4375 
Q 25.25 74.21875 29.59375 74.21875 
Q 40.828125 74.21875 47.359375 69.109375 
Q 53.90625 64.015625 53.90625 55.328125 
Q 53.90625 49.265625 50.4375 45.09375 
Q 46.96875 40.921875 40.578125 39.3125 
z
" id="DejaVuSans-51"/>
      </defs>
      <g transform="translate(979 187.76721)scale(0.1 -0.1)">
       <use xlink:href="#DejaVuSans-51"/>
       <use x="63.623047" xlink:href="#DejaVuSans-48"/>
       <use x="127.246094" xlink:href="#DejaVuSans-48"/>
      </g>
     </g>
    </g>
    <g id="ytick_12">
     <g id="line2d_38">
      <g>
       <use style="stroke:#000000;stroke-width:0.8;" x="972" xlink:href="#mde8a71aa7e" y="103.519789"/>
      </g>
     </g>
     <g id="text_23">
      <!-- 400 -->
      <g transform="translate(979 107.319007)scale(0.1 -0.1)">
       <use xlink:href="#DejaVuSans-52"/>
       <use x="63.623047" xlink:href="#DejaVuSans-48"/>
       <use x="127.246094" xlink:href="#DejaVuSans-48"/>
      </g>
     </g>
    </g>
    <g id="text_24">
     <!-- Number of natural disasters -->
     <defs>
      <path d="M 48.6875 27.296875 
Q 48.6875 37.203125 44.609375 42.84375 
Q 40.53125 48.484375 33.40625 48.484375 
Q 26.265625 48.484375 22.1875 42.84375 
Q 18.109375 37.203125 18.109375 27.296875 
Q 18.109375 17.390625 22.1875 11.75 
Q 26.265625 6.109375 33.40625 6.109375 
Q 40.53125 6.109375 44.609375 11.75 
Q 48.6875 17.390625 48.6875 27.296875 
z
M 18.109375 46.390625 
Q 20.953125 51.265625 25.265625 53.625 
Q 29.59375 56 35.59375 56 
Q 45.5625 56 51.78125 48.09375 
Q 58.015625 40.1875 58.015625 27.296875 
Q 58.015625 14.40625 51.78125 6.484375 
Q 45.5625 -1.421875 35.59375 -1.421875 
Q 29.59375 -1.421875 25.265625 0.953125 
Q 20.953125 3.328125 18.109375 8.203125 
L 18.109375 0 
L 9.078125 0 
L 9.078125 75.984375 
L 18.109375 75.984375 
z
" id="DejaVuSans-98"/>
      <path d="M 37.109375 75.984375 
L 37.109375 68.5 
L 28.515625 68.5 
Q 23.6875 68.5 21.796875 66.546875 
Q 19.921875 64.59375 19.921875 59.515625 
L 19.921875 54.6875 
L 34.71875 54.6875 
L 34.71875 47.703125 
L 19.921875 47.703125 
L 19.921875 0 
L 10.890625 0 
L 10.890625 47.703125 
L 2.296875 47.703125 
L 2.296875 54.6875 
L 10.890625 54.6875 
L 10.890625 58.5 
Q 10.890625 67.625 15.140625 71.796875 
Q 19.390625 75.984375 28.609375 75.984375 
z
" id="DejaVuSans-102"/>
      <path d="M 45.40625 46.390625 
L 45.40625 75.984375 
L 54.390625 75.984375 
L 54.390625 0 
L 45.40625 0 
L 45.40625 8.203125 
Q 42.578125 3.328125 38.25 0.953125 
Q 33.9375 -1.421875 27.875 -1.421875 
Q 17.96875 -1.421875 11.734375 6.484375 
Q 5.515625 14.40625 5.515625 27.296875 
Q 5.515625 40.1875 11.734375 48.09375 
Q 17.96875 56 27.875 56 
Q 33.9375 56 38.25 53.625 
Q 42.578125 51.265625 45.40625 46.390625 
z
M 14.796875 27.296875 
Q 14.796875 17.390625 18.875 11.75 
Q 22.953125 6.109375 30.078125 6.109375 
Q 37.203125 6.109375 41.296875 11.75 
Q 45.40625 17.390625 45.40625 27.296875 
Q 45.40625 37.203125 41.296875 42.84375 
Q 37.203125 48.484375 30.078125 48.484375 
Q 22.953125 48.484375 18.875 42.84375 
Q 14.796875 37.203125 14.796875 27.296875 
z
" id="DejaVuSans-100"/>
     </defs>
     <g transform="translate(1013.485156 355.854844)rotate(-90)scale(0.15 -0.15)">
      <use xlink:href="#DejaVuSans-78"/>
      <use x="74.804688" xlink:href="#DejaVuSans-117"/>
      <use x="138.183594" xlink:href="#DejaVuSans-109"/>
      <use x="235.595703" xlink:href="#DejaVuSans-98"/>
      <use x="299.072266" xlink:href="#DejaVuSans-101"/>
      <use x="360.595703" xlink:href="#DejaVuSans-114"/>
      <use x="401.708984" xlink:href="#DejaVuSans-32"/>
      <use x="433.496094" xlink:href="#DejaVuSans-111"/>
      <use x="494.677734" xlink:href="#DejaVuSans-102"/>
      <use x="529.882812" xlink:href="#DejaVuSans-32"/>
      <use x="561.669922" xlink:href="#DejaVuSans-110"/>
      <use x="625.048828" xlink:href="#DejaVuSans-97"/>
      <use x="686.328125" xlink:href="#DejaVuSans-116"/>
      <use x="725.537109" xlink:href="#DejaVuSans-117"/>
      <use x="788.916016" xlink:href="#DejaVuSans-114"/>
      <use x="830.029297" xlink:href="#DejaVuSans-97"/>
      <use x="891.308594" xlink:href="#DejaVuSans-108"/>
      <use x="919.091797" xlink:href="#DejaVuSans-32"/>
      <use x="950.878906" xlink:href="#DejaVuSans-100"/>
      <use x="1014.355469" xlink:href="#DejaVuSans-105"/>
      <use x="1042.138672" xlink:href="#DejaVuSans-115"/>
      <use x="1094.238281" xlink:href="#DejaVuSans-97"/>
      <use x="1155.517578" xlink:href="#DejaVuSans-115"/>
      <use x="1207.617188" xlink:href="#DejaVuSans-116"/>
      <use x="1246.826172" xlink:href="#DejaVuSans-101"/>
      <use x="1308.349609" xlink:href="#DejaVuSans-114"/>
      <use x="1349.462891" xlink:href="#DejaVuSans-115"/>
     </g>
    </g>
   </g>
   <g id="line2d_39">
    <path clip-path="url(#pc95260255c)" d="M 173.045455 421.29019 
L 179.662055 423.703636 
L 186.278656 418.072262 
L 192.895257 418.876744 
L 199.511858 423.703636 
L 206.128458 422.094672 
L 212.745059 411.636406 
L 219.36166 421.29019 
L 225.978261 422.094672 
L 232.594862 416.463298 
L 239.211462 413.24537 
L 245.828063 421.29019 
L 252.444664 419.681226 
L 259.061265 421.29019 
L 265.677866 420.485708 
L 272.294466 419.681226 
L 278.911067 423.703636 
L 285.527668 420.485708 
L 292.144269 419.681226 
L 298.76087 422.094672 
L 305.37747 419.681226 
L 311.994071 423.703636 
L 318.610672 420.485708 
L 325.227273 415.658816 
L 331.843874 422.094672 
L 338.460474 420.485708 
L 345.077075 413.24537 
L 351.693676 415.658816 
L 358.310277 411.636406 
L 364.926877 420.485708 
L 371.543478 414.049852 
L 378.160079 415.658816 
L 384.77668 418.876744 
L 391.393281 417.26778 
L 398.009881 418.072262 
L 404.626482 416.463298 
L 411.243083 416.463298 
L 417.859684 419.681226 
L 424.476285 419.681226 
L 431.092885 416.463298 
L 437.709486 411.636406 
L 444.326087 421.29019 
L 450.942688 418.072262 
L 457.559289 415.658816 
L 464.175889 415.658816 
L 470.79249 415.658816 
L 477.409091 413.24537 
L 484.025692 415.658816 
L 490.642292 406.809514 
L 497.258893 409.22296 
L 503.875494 406.809514 
L 510.492095 403.591586 
L 517.108696 406.005032 
L 523.725296 397.960211 
L 530.341897 398.764693 
L 536.958498 401.17814 
L 543.575099 396.351247 
L 550.1917 401.982622 
L 556.8083 406.809514 
L 563.424901 398.764693 
L 570.041502 393.133319 
L 576.658103 402.787104 
L 583.274704 402.787104 
L 589.891304 392.328837 
L 596.507905 377.043679 
L 603.124506 376.239197 
L 609.741107 360.954038 
L 616.357708 368.998858 
L 622.974308 363.367484 
L 629.590909 375.434715 
L 636.20751 363.367484 
L 642.824111 376.239197 
L 649.440711 374.630233 
L 656.057312 377.043679 
L 662.673913 370.607822 
L 669.290514 374.630233 
L 675.907115 352.104736 
L 682.523715 327.970275 
L 689.140316 332.797167 
L 695.756917 328.774757 
L 702.373518 318.31649 
L 708.990119 314.29408 
L 715.606719 302.22685 
L 722.22332 260.393784 
L 728.839921 307.858224 
L 735.456522 292.573066 
L 742.073123 304.640296 
L 748.689723 271.656533 
L 755.306324 264.416195 
L 761.922925 286.941691 
L 768.539526 201.666596 
L 775.156126 241.890698 
L 781.772727 261.198266 
L 788.389328 216.147273 
L 795.005929 227.410021 
L 801.62253 225.801057 
L 808.23913 242.69518 
L 814.855731 215.342791 
L 821.472332 193.621776 
L 828.088933 154.202156 
L 834.705534 94.670486 
L 841.322134 122.827357 
L 847.938735 86.625666 
L 854.555336 135.69907 
L 861.171937 143.74389 
L 867.788538 77.776364 
L 874.405138 102.715307 
L 881.021739 92.25704 
L 887.63834 142.134926 
L 894.254941 148.570782 
L 900.871542 109.151163 
L 907.488142 156.615603 
L 914.104743 146.961818 
L 920.721344 158.224567 
L 927.337945 167.878351 
L 933.954545 119.609429 
" style="fill:none;stroke:#0000ff;stroke-linecap:square;stroke-width:1.5;"/>
    <g clip-path="url(#pc95260255c)">
     <use style="fill:#0000ff;stroke:#0000ff;" x="173.045455" xlink:href="#m577e487879" y="421.29019"/>
     <use style="fill:#0000ff;stroke:#0000ff;" x="179.662055" xlink:href="#m577e487879" y="423.703636"/>
     <use style="fill:#0000ff;stroke:#0000ff;" x="186.278656" xlink:href="#m577e487879" y="418.072262"/>
     <use style="fill:#0000ff;stroke:#0000ff;" x="192.895257" xlink:href="#m577e487879" y="418.876744"/>
     <use style="fill:#0000ff;stroke:#0000ff;" x="199.511858" xlink:href="#m577e487879" y="423.703636"/>
     <use style="fill:#0000ff;stroke:#0000ff;" x="206.128458" xlink:href="#m577e487879" y="422.094672"/>
     <use style="fill:#0000ff;stroke:#0000ff;" x="212.745059" xlink:href="#m577e487879" y="411.636406"/>
     <use style="fill:#0000ff;stroke:#0000ff;" x="219.36166" xlink:href="#m577e487879" y="421.29019"/>
     <use style="fill:#0000ff;stroke:#0000ff;" x="225.978261" xlink:href="#m577e487879" y="422.094672"/>
     <use style="fill:#0000ff;stroke:#0000ff;" x="232.594862" xlink:href="#m577e487879" y="416.463298"/>
     <use style="fill:#0000ff;stroke:#0000ff;" x="239.211462" xlink:href="#m577e487879" y="413.24537"/>
     <use style="fill:#0000ff;stroke:#0000ff;" x="245.828063" xlink:href="#m577e487879" y="421.29019"/>
     <use style="fill:#0000ff;stroke:#0000ff;" x="252.444664" xlink:href="#m577e487879" y="419.681226"/>
     <use style="fill:#0000ff;stroke:#0000ff;" x="259.061265" xlink:href="#m577e487879" y="421.29019"/>
     <use style="fill:#0000ff;stroke:#0000ff;" x="265.677866" xlink:href="#m577e487879" y="420.485708"/>
     <use style="fill:#0000ff;stroke:#0000ff;" x="272.294466" xlink:href="#m577e487879" y="419.681226"/>
     <use style="fill:#0000ff;stroke:#0000ff;" x="278.911067" xlink:href="#m577e487879" y="423.703636"/>
     <use style="fill:#0000ff;stroke:#0000ff;" x="285.527668" xlink:href="#m577e487879" y="420.485708"/>
     <use style="fill:#0000ff;stroke:#0000ff;" x="292.144269" xlink:href="#m577e487879" y="419.681226"/>
     <use style="fill:#0000ff;stroke:#0000ff;" x="298.76087" xlink:href="#m577e487879" y="422.094672"/>
     <use style="fill:#0000ff;stroke:#0000ff;" x="305.37747" xlink:href="#m577e487879" y="419.681226"/>
     <use style="fill:#0000ff;stroke:#0000ff;" x="311.994071" xlink:href="#m577e487879" y="423.703636"/>
     <use style="fill:#0000ff;stroke:#0000ff;" x="318.610672" xlink:href="#m577e487879" y="420.485708"/>
     <use style="fill:#0000ff;stroke:#0000ff;" x="325.227273" xlink:href="#m577e487879" y="415.658816"/>
     <use style="fill:#0000ff;stroke:#0000ff;" x="331.843874" xlink:href="#m577e487879" y="422.094672"/>
     <use style="fill:#0000ff;stroke:#0000ff;" x="338.460474" xlink:href="#m577e487879" y="420.485708"/>
     <use style="fill:#0000ff;stroke:#0000ff;" x="345.077075" xlink:href="#m577e487879" y="413.24537"/>
     <use style="fill:#0000ff;stroke:#0000ff;" x="351.693676" xlink:href="#m577e487879" y="415.658816"/>
     <use style="fill:#0000ff;stroke:#0000ff;" x="358.310277" xlink:href="#m577e487879" y="411.636406"/>
     <use style="fill:#0000ff;stroke:#0000ff;" x="364.926877" xlink:href="#m577e487879" y="420.485708"/>
     <use style="fill:#0000ff;stroke:#0000ff;" x="371.543478" xlink:href="#m577e487879" y="414.049852"/>
     <use style="fill:#0000ff;stroke:#0000ff;" x="378.160079" xlink:href="#m577e487879" y="415.658816"/>
     <use style="fill:#0000ff;stroke:#0000ff;" x="384.77668" xlink:href="#m577e487879" y="418.876744"/>
     <use style="fill:#0000ff;stroke:#0000ff;" x="391.393281" xlink:href="#m577e487879" y="417.26778"/>
     <use style="fill:#0000ff;stroke:#0000ff;" x="398.009881" xlink:href="#m577e487879" y="418.072262"/>
     <use style="fill:#0000ff;stroke:#0000ff;" x="404.626482" xlink:href="#m577e487879" y="416.463298"/>
     <use style="fill:#0000ff;stroke:#0000ff;" x="411.243083" xlink:href="#m577e487879" y="416.463298"/>
     <use style="fill:#0000ff;stroke:#0000ff;" x="417.859684" xlink:href="#m577e487879" y="419.681226"/>
     <use style="fill:#0000ff;stroke:#0000ff;" x="424.476285" xlink:href="#m577e487879" y="419.681226"/>
     <use style="fill:#0000ff;stroke:#0000ff;" x="431.092885" xlink:href="#m577e487879" y="416.463298"/>
     <use style="fill:#0000ff;stroke:#0000ff;" x="437.709486" xlink:href="#m577e487879" y="411.636406"/>
     <use style="fill:#0000ff;stroke:#0000ff;" x="444.326087" xlink:href="#m577e487879" y="421.29019"/>
     <use style="fill:#0000ff;stroke:#0000ff;" x="450.942688" xlink:href="#m577e487879" y="418.072262"/>
     <use style="fill:#0000ff;stroke:#0000ff;" x="457.559289" xlink:href="#m577e487879" y="415.658816"/>
     <use style="fill:#0000ff;stroke:#0000ff;" x="464.175889" xlink:href="#m577e487879" y="415.658816"/>
     <use style="fill:#0000ff;stroke:#0000ff;" x="470.79249" xlink:href="#m577e487879" y="415.658816"/>
     <use style="fill:#0000ff;stroke:#0000ff;" x="477.409091" xlink:href="#m577e487879" y="413.24537"/>
     <use style="fill:#0000ff;stroke:#0000ff;" x="484.025692" xlink:href="#m577e487879" y="415.658816"/>
     <use style="fill:#0000ff;stroke:#0000ff;" x="490.642292" xlink:href="#m577e487879" y="406.809514"/>
     <use style="fill:#0000ff;stroke:#0000ff;" x="497.258893" xlink:href="#m577e487879" y="409.22296"/>
     <use style="fill:#0000ff;stroke:#0000ff;" x="503.875494" xlink:href="#m577e487879" y="406.809514"/>
     <use style="fill:#0000ff;stroke:#0000ff;" x="510.492095" xlink:href="#m577e487879" y="403.591586"/>
     <use style="fill:#0000ff;stroke:#0000ff;" x="517.108696" xlink:href="#m577e487879" y="406.005032"/>
     <use style="fill:#0000ff;stroke:#0000ff;" x="523.725296" xlink:href="#m577e487879" y="397.960211"/>
     <use style="fill:#0000ff;stroke:#0000ff;" x="530.341897" xlink:href="#m577e487879" y="398.764693"/>
     <use style="fill:#0000ff;stroke:#0000ff;" x="536.958498" xlink:href="#m577e487879" y="401.17814"/>
     <use style="fill:#0000ff;stroke:#0000ff;" x="543.575099" xlink:href="#m577e487879" y="396.351247"/>
     <use style="fill:#0000ff;stroke:#0000ff;" x="550.1917" xlink:href="#m577e487879" y="401.982622"/>
     <use style="fill:#0000ff;stroke:#0000ff;" x="556.8083" xlink:href="#m577e487879" y="406.809514"/>
     <use style="fill:#0000ff;stroke:#0000ff;" x="563.424901" xlink:href="#m577e487879" y="398.764693"/>
     <use style="fill:#0000ff;stroke:#0000ff;" x="570.041502" xlink:href="#m577e487879" y="393.133319"/>
     <use style="fill:#0000ff;stroke:#0000ff;" x="576.658103" xlink:href="#m577e487879" y="402.787104"/>
     <use style="fill:#0000ff;stroke:#0000ff;" x="583.274704" xlink:href="#m577e487879" y="402.787104"/>
     <use style="fill:#0000ff;stroke:#0000ff;" x="589.891304" xlink:href="#m577e487879" y="392.328837"/>
     <use style="fill:#0000ff;stroke:#0000ff;" x="596.507905" xlink:href="#m577e487879" y="377.043679"/>
     <use style="fill:#0000ff;stroke:#0000ff;" x="603.124506" xlink:href="#m577e487879" y="376.239197"/>
     <use style="fill:#0000ff;stroke:#0000ff;" x="609.741107" xlink:href="#m577e487879" y="360.954038"/>
     <use style="fill:#0000ff;stroke:#0000ff;" x="616.357708" xlink:href="#m577e487879" y="368.998858"/>
     <use style="fill:#0000ff;stroke:#0000ff;" x="622.974308" xlink:href="#m577e487879" y="363.367484"/>
     <use style="fill:#0000ff;stroke:#0000ff;" x="629.590909" xlink:href="#m577e487879" y="375.434715"/>
     <use style="fill:#0000ff;stroke:#0000ff;" x="636.20751" xlink:href="#m577e487879" y="363.367484"/>
     <use style="fill:#0000ff;stroke:#0000ff;" x="642.824111" xlink:href="#m577e487879" y="376.239197"/>
     <use style="fill:#0000ff;stroke:#0000ff;" x="649.440711" xlink:href="#m577e487879" y="374.630233"/>
     <use style="fill:#0000ff;stroke:#0000ff;" x="656.057312" xlink:href="#m577e487879" y="377.043679"/>
     <use style="fill:#0000ff;stroke:#0000ff;" x="662.673913" xlink:href="#m577e487879" y="370.607822"/>
     <use style="fill:#0000ff;stroke:#0000ff;" x="669.290514" xlink:href="#m577e487879" y="374.630233"/>
     <use style="fill:#0000ff;stroke:#0000ff;" x="675.907115" xlink:href="#m577e487879" y="352.104736"/>
     <use style="fill:#0000ff;stroke:#0000ff;" x="682.523715" xlink:href="#m577e487879" y="327.970275"/>
     <use style="fill:#0000ff;stroke:#0000ff;" x="689.140316" xlink:href="#m577e487879" y="332.797167"/>
     <use style="fill:#0000ff;stroke:#0000ff;" x="695.756917" xlink:href="#m577e487879" y="328.774757"/>
     <use style="fill:#0000ff;stroke:#0000ff;" x="702.373518" xlink:href="#m577e487879" y="318.31649"/>
     <use style="fill:#0000ff;stroke:#0000ff;" x="708.990119" xlink:href="#m577e487879" y="314.29408"/>
     <use style="fill:#0000ff;stroke:#0000ff;" x="715.606719" xlink:href="#m577e487879" y="302.22685"/>
     <use style="fill:#0000ff;stroke:#0000ff;" x="722.22332" xlink:href="#m577e487879" y="260.393784"/>
     <use style="fill:#0000ff;stroke:#0000ff;" x="728.839921" xlink:href="#m577e487879" y="307.858224"/>
     <use style="fill:#0000ff;stroke:#0000ff;" x="735.456522" xlink:href="#m577e487879" y="292.573066"/>
     <use style="fill:#0000ff;stroke:#0000ff;" x="742.073123" xlink:href="#m577e487879" y="304.640296"/>
     <use style="fill:#0000ff;stroke:#0000ff;" x="748.689723" xlink:href="#m577e487879" y="271.656533"/>
     <use style="fill:#0000ff;stroke:#0000ff;" x="755.306324" xlink:href="#m577e487879" y="264.416195"/>
     <use style="fill:#0000ff;stroke:#0000ff;" x="761.922925" xlink:href="#m577e487879" y="286.941691"/>
     <use style="fill:#0000ff;stroke:#0000ff;" x="768.539526" xlink:href="#m577e487879" y="201.666596"/>
     <use style="fill:#0000ff;stroke:#0000ff;" x="775.156126" xlink:href="#m577e487879" y="241.890698"/>
     <use style="fill:#0000ff;stroke:#0000ff;" x="781.772727" xlink:href="#m577e487879" y="261.198266"/>
     <use style="fill:#0000ff;stroke:#0000ff;" x="788.389328" xlink:href="#m577e487879" y="216.147273"/>
     <use style="fill:#0000ff;stroke:#0000ff;" x="795.005929" xlink:href="#m577e487879" y="227.410021"/>
     <use style="fill:#0000ff;stroke:#0000ff;" x="801.62253" xlink:href="#m577e487879" y="225.801057"/>
     <use style="fill:#0000ff;stroke:#0000ff;" x="808.23913" xlink:href="#m577e487879" y="242.69518"/>
     <use style="fill:#0000ff;stroke:#0000ff;" x="814.855731" xlink:href="#m577e487879" y="215.342791"/>
     <use style="fill:#0000ff;stroke:#0000ff;" x="821.472332" xlink:href="#m577e487879" y="193.621776"/>
     <use style="fill:#0000ff;stroke:#0000ff;" x="828.088933" xlink:href="#m577e487879" y="154.202156"/>
     <use style="fill:#0000ff;stroke:#0000ff;" x="834.705534" xlink:href="#m577e487879" y="94.670486"/>
     <use style="fill:#0000ff;stroke:#0000ff;" x="841.322134" xlink:href="#m577e487879" y="122.827357"/>
     <use style="fill:#0000ff;stroke:#0000ff;" x="847.938735" xlink:href="#m577e487879" y="86.625666"/>
     <use style="fill:#0000ff;stroke:#0000ff;" x="854.555336" xlink:href="#m577e487879" y="135.69907"/>
     <use style="fill:#0000ff;stroke:#0000ff;" x="861.171937" xlink:href="#m577e487879" y="143.74389"/>
     <use style="fill:#0000ff;stroke:#0000ff;" x="867.788538" xlink:href="#m577e487879" y="77.776364"/>
     <use style="fill:#0000ff;stroke:#0000ff;" x="874.405138" xlink:href="#m577e487879" y="102.715307"/>
     <use style="fill:#0000ff;stroke:#0000ff;" x="881.021739" xlink:href="#m577e487879" y="92.25704"/>
     <use style="fill:#0000ff;stroke:#0000ff;" x="887.63834" xlink:href="#m577e487879" y="142.134926"/>
     <use style="fill:#0000ff;stroke:#0000ff;" x="894.254941" xlink:href="#m577e487879" y="148.570782"/>
     <use style="fill:#0000ff;stroke:#0000ff;" x="900.871542" xlink:href="#m577e487879" y="109.151163"/>
     <use style="fill:#0000ff;stroke:#0000ff;" x="907.488142" xlink:href="#m577e487879" y="156.615603"/>
     <use style="fill:#0000ff;stroke:#0000ff;" x="914.104743" xlink:href="#m577e487879" y="146.961818"/>
     <use style="fill:#0000ff;stroke:#0000ff;" x="920.721344" xlink:href="#m577e487879" y="158.224567"/>
     <use style="fill:#0000ff;stroke:#0000ff;" x="927.337945" xlink:href="#m577e487879" y="167.878351"/>
     <use style="fill:#0000ff;stroke:#0000ff;" x="933.954545" xlink:href="#m577e487879" y="119.609429"/>
    </g>
   </g>
   <g id="patch_8">
    <path d="M 135 441 
L 135 60.48 
" style="fill:none;stroke:#000000;stroke-linecap:square;stroke-linejoin:miter;stroke-width:0.8;"/>
   </g>
   <g id="patch_9">
    <path d="M 972 441 
L 972 60.48 
" style="fill:none;stroke:#000000;stroke-linecap:square;stroke-linejoin:miter;stroke-width:0.8;"/>
   </g>
   <g id="patch_10">
    <path d="M 135 441 
L 972 441 
" style="fill:none;stroke:#000000;stroke-linecap:square;stroke-linejoin:miter;stroke-width:0.8;"/>
   </g>
   <g id="patch_11">
    <path d="M 135 60.48 
L 972 60.48 
" style="fill:none;stroke:#000000;stroke-linecap:square;stroke-linejoin:miter;stroke-width:0.8;"/>
   </g>
   <g id="text_25">
    <!-- Global temperature anomalies and natural disasters (1950 to 2015) -->
    <defs>
     <path d="M 59.515625 10.40625 
L 59.515625 29.984375 
L 43.40625 29.984375 
L 43.40625 38.09375 
L 69.28125 38.09375 
L 69.28125 6.78125 
Q 63.578125 2.734375 56.6875 0.65625 
Q 49.8125 -1.421875 42 -1.421875 
Q 24.90625 -1.421875 15.25 8.5625 
Q 5.609375 18.5625 5.609375 36.375 
Q 5.609375 54.25 15.25 64.234375 
Q 24.90625 74.21875 42 74.21875 
Q 49.125 74.21875 55.546875 72.453125 
Q 61.96875 70.703125 67.390625 67.28125 
L 67.390625 56.78125 
Q 61.921875 61.421875 55.765625 63.765625 
Q 49.609375 66.109375 42.828125 66.109375 
Q 29.4375 66.109375 22.71875 58.640625 
Q 16.015625 51.171875 16.015625 36.375 
Q 16.015625 21.625 22.71875 14.15625 
Q 29.4375 6.6875 42.828125 6.6875 
Q 48.046875 6.6875 52.140625 7.59375 
Q 56.25 8.5 59.515625 10.40625 
z
" id="DejaVuSans-71"/>
     <path d="M 10.796875 72.90625 
L 49.515625 72.90625 
L 49.515625 64.59375 
L 19.828125 64.59375 
L 19.828125 46.734375 
Q 21.96875 47.46875 24.109375 47.828125 
Q 26.265625 48.1875 28.421875 48.1875 
Q 40.625 48.1875 47.75 41.5 
Q 54.890625 34.8125 54.890625 23.390625 
Q 54.890625 11.625 47.5625 5.09375 
Q 40.234375 -1.421875 26.90625 -1.421875 
Q 22.3125 -1.421875 17.546875 -0.640625 
Q 12.796875 0.140625 7.71875 1.703125 
L 7.71875 11.625 
Q 12.109375 9.234375 16.796875 8.0625 
Q 21.484375 6.890625 26.703125 6.890625 
Q 35.15625 6.890625 40.078125 11.328125 
Q 45.015625 15.765625 45.015625 23.390625 
Q 45.015625 31 40.078125 35.4375 
Q 35.15625 39.890625 26.703125 39.890625 
Q 22.75 39.890625 18.8125 39.015625 
Q 14.890625 38.140625 10.796875 36.28125 
z
" id="DejaVuSans-53"/>
    </defs>
    <g transform="translate(230.372344 54.48)scale(0.19 -0.19)">
     <use xlink:href="#DejaVuSans-71"/>
     <use x="77.490234" xlink:href="#DejaVuSans-108"/>
     <use x="105.273438" xlink:href="#DejaVuSans-111"/>
     <use x="166.455078" xlink:href="#DejaVuSans-98"/>
     <use x="229.931641" xlink:href="#DejaVuSans-97"/>
     <use x="291.210938" xlink:href="#DejaVuSans-108"/>
     <use x="318.994141" xlink:href="#DejaVuSans-32"/>
     <use x="350.78125" xlink:href="#DejaVuSans-116"/>
     <use x="389.990234" xlink:href="#DejaVuSans-101"/>
     <use x="451.513672" xlink:href="#DejaVuSans-109"/>
     <use x="548.925781" xlink:href="#DejaVuSans-112"/>
     <use x="612.402344" xlink:href="#DejaVuSans-101"/>
     <use x="673.925781" xlink:href="#DejaVuSans-114"/>
     <use x="715.039062" xlink:href="#DejaVuSans-97"/>
     <use x="776.318359" xlink:href="#DejaVuSans-116"/>
     <use x="815.527344" xlink:href="#DejaVuSans-117"/>
     <use x="878.90625" xlink:href="#DejaVuSans-114"/>
     <use x="919.988281" xlink:href="#DejaVuSans-101"/>
     <use x="981.511719" xlink:href="#DejaVuSans-32"/>
     <use x="1013.298828" xlink:href="#DejaVuSans-97"/>
     <use x="1074.578125" xlink:href="#DejaVuSans-110"/>
     <use x="1137.957031" xlink:href="#DejaVuSans-111"/>
     <use x="1199.138672" xlink:href="#DejaVuSans-109"/>
     <use x="1296.550781" xlink:href="#DejaVuSans-97"/>
     <use x="1357.830078" xlink:href="#DejaVuSans-108"/>
     <use x="1385.613281" xlink:href="#DejaVuSans-105"/>
     <use x="1413.396484" xlink:href="#DejaVuSans-101"/>
     <use x="1474.919922" xlink:href="#DejaVuSans-115"/>
     <use x="1527.019531" xlink:href="#DejaVuSans-32"/>
     <use x="1558.806641" xlink:href="#DejaVuSans-97"/>
     <use x="1620.085938" xlink:href="#DejaVuSans-110"/>
     <use x="1683.464844" xlink:href="#DejaVuSans-100"/>
     <use x="1746.941406" xlink:href="#DejaVuSans-32"/>
     <use x="1778.728516" xlink:href="#DejaVuSans-110"/>
     <use x="1842.107422" xlink:href="#DejaVuSans-97"/>
     <use x="1903.386719" xlink:href="#DejaVuSans-116"/>
     <use x="1942.595703" xlink:href="#DejaVuSans-117"/>
     <use x="2005.974609" xlink:href="#DejaVuSans-114"/>
     <use x="2047.087891" xlink:href="#DejaVuSans-97"/>
     <use x="2108.367188" xlink:href="#DejaVuSans-108"/>
     <use x="2136.150391" xlink:href="#DejaVuSans-32"/>
     <use x="2167.9375" xlink:href="#DejaVuSans-100"/>
     <use x="2231.414062" xlink:href="#DejaVuSans-105"/>
     <use x="2259.197266" xlink:href="#DejaVuSans-115"/>
     <use x="2311.296875" xlink:href="#DejaVuSans-97"/>
     <use x="2372.576172" xlink:href="#DejaVuSans-115"/>
     <use x="2424.675781" xlink:href="#DejaVuSans-116"/>
     <use x="2463.884766" xlink:href="#DejaVuSans-101"/>
     <use x="2525.408203" xlink:href="#DejaVuSans-114"/>
     <use x="2566.521484" xlink:href="#DejaVuSans-115"/>
     <use x="2618.621094" xlink:href="#DejaVuSans-32"/>
     <use x="2650.408203" xlink:href="#DejaVuSans-40"/>
     <use x="2689.421875" xlink:href="#DejaVuSans-49"/>
     <use x="2753.044922" xlink:href="#DejaVuSans-57"/>
     <use x="2816.667969" xlink:href="#DejaVuSans-53"/>
     <use x="2880.291016" xlink:href="#DejaVuSans-48"/>
     <use x="2943.914062" xlink:href="#DejaVuSans-32"/>
     <use x="2975.701172" xlink:href="#DejaVuSans-116"/>
     <use x="3014.910156" xlink:href="#DejaVuSans-111"/>
     <use x="3076.091797" xlink:href="#DejaVuSans-32"/>
     <use x="3107.878906" xlink:href="#DejaVuSans-50"/>
     <use x="3171.501953" xlink:href="#DejaVuSans-48"/>
     <use x="3235.125" xlink:href="#DejaVuSans-49"/>
     <use x="3298.748047" xlink:href="#DejaVuSans-53"/>
     <use x="3362.371094" xlink:href="#DejaVuSans-41"/>
    </g>
   </g>
  </g>
 </g>
 <defs>
  <clipPath id="pc95260255c">
   <rect height="380.52" width="837" x="135" y="60.48"/>
  </clipPath>
 </defs>
</svg>
